wght1000_wdth50.ufo
<glyph name="zero" format="2">
	<unicode hex="0030"/>
	<advance width="1147"/>
	<outline>
		<contour>
			<point x="65.3939812877" y="895.1081542969" type="qcurve" smooth="yes"/>
			<point x="142.4829095103" y="1222.4879150391"/>
			<point x="485.5419311523" y="1583.7950439453"/>
			<point x="750.553894043" y="1539.9704589844" type="qcurve" smooth="yes"/>
			<point x="947.7857055664" y="1496.1458740234"/>
			<point x="1122.5485833385" y="1036.4204101562"/>
			<point x="1055.7101433971" y="706.8623046875" type="qcurve" smooth="yes"/>
			<point x="979.3580926158" y="331.2398681641"/>
			<point x="622.6736450195" y="-56.6491699219"/>
			<point x="347.4115600586" y="-9" type="qcurve" smooth="yes"/>
			<point x="158.5496826172" y="36.6491699219"/>
			<point x="-18.5321661733" y="523.2933349609"/>
		</contour>
		<contour>
			<point x="229.5661621094" y="800.967956543" type="qcurve" smooth="yes"/>
			<point x="154.1319580078" y="513.8744506836"/>
			<point x="245.9574584961" y="111.8597412109"/>
			<point x="388.3600463867" y="102.8597412109" type="qcurve" smooth="yes"/>
			<point x="541.4629516602" y="93.8597412109"/>
			<point x="811.5816650391" y="451.2716064453"/>
			<point x="872.4499511719" y="715.9147949219" type="qcurve" smooth="yes"/>
			<point x="936.9010009766" y="992.6069335938"/>
			<point x="842.7977905273" y="1415.3825683594"/>
			<point x="701.6953735352" y="1424.3825683594" type="qcurve" smooth="yes"/>
			<point x="543.7924194336" y="1433.3825683594"/>
			<point x="305.7003173828" y="1089.6111450195"/>
		</contour>
	</outline>
</glyph>
<glyph name="one" format="2">
	<unicode hex="0031"/>
	<advance width="775"/>
	<outline>
		<contour>
			<point x="287.3435058594" y="44" type="line"/>
			<point x="311.3435058594" y="106"/>
			<point x="350.7985229492" y="214.8493652344"/>
			<point x="370.8591918945" y="323.6087646484" type="qcurve" smooth="yes"/>
			<point x="505.6813354492" y="990.6326293945" type="line"/>
			<point x="558.8782958984" y="1301.7223510742" type="line"/>
			<point x="32.3112182617" y="985.2269287109" type="line"/>
			<point x="-9.3833618164" y="1123.5705566406" type="line"/>
			<point x="581.6873779297" y="1564.7277832031" type="line"/>
			<point x="747.5903320312" y="1468.3685302734" type="line"/>
			<point x="717.1160888672" y="1426.5589599609"/>
			<point x="691.5045166016" y="1283.2847900391"/>
			<point x="688.6314697266" y="1273.0465087891" type="qcurve" smooth="yes"/>
			<point x="576.3212890625" y="733.3178710938" type="line"/>
			<point x="478.2282104492" y="150" type="line"/>
			<point x="431.7961425781" y="-34" type="line"/>
		</contour>
	</outline>
</glyph>
<glyph name="two" format="2">
	<unicode hex="0032"/>
	<advance width="1014"/>
	<outline>
		<contour>
			<point x="-149.8883056641" y="6.7280273438" type="qcurve"/>
			<point x="-212.4115600586" y="112.8505249023" type="line"/>
			<point x="-27.5532226562" y="230.2100219727" type="line" smooth="yes"/>
			<point x="379.740234375" y="446.1324462891"/>
			<point x="937.705871582" y="901.2646484375"/>
			<point x="927.7666625977" y="1108.5584716797" type="qcurve" smooth="yes"/>
			<point x="921.884765625" y="1220.1692504883"/>
			<point x="723.3319091797" y="1331.0536499023"/>
			<point x="573.3287353516" y="1331.0536499023" type="qcurve" smooth="yes"/>
			<point x="419.0428466797" y="1331.0536499023"/>
			<point x="182.3502807617" y="1269.5790405273"/>
			<point x="68.4841308594" y="1206.6310424805" type="qcurve"/>
			<point x="42.2429199219" y="1316.5631103516" type="line"/>
			<point x="142.6246948242" y="1405.9843139648"/>
			<point x="428.7997436523" y="1540.2738037109"/>
			<point x="620.5338134766" y="1540.2738037109" type="qcurve" smooth="yes"/>
			<point x="799.8709716797" y="1540.2738037109"/>
			<point x="1057.9216918945" y="1378.6943359375"/>
			<point x="1071.6060791016" y="1186.6912231445" type="qcurve" smooth="yes"/>
			<point x="1093.5010986328" y="883.0395507812"/>
			<point x="455.6528320312" y="346.477355957"/>
			<point x="86.3322143555" y="105.9888916016" type="qcurve"/>
			<point x="97.237121582" y="93.1110229492" type="line"/>
			<point x="128.7485961914" y="106.9888916016"/>
			<point x="203.3985595703" y="121.901184082"/>
			<point x="266.4641113281" y="120.1716918945" type="qcurve"/>
			<point x="352.5148925781" y="112.0194702148"/>
			<point x="649.2750244141" y="74.9460449219"/>
			<point x="794.3096313477" y="66.5330200195" type="qcurve"/>
			<point x="885.528137207" y="234.3545532227" type="line"/>
			<point x="931.5637207031" y="214.1740722656" type="line"/>
			<point x="849.8843994141" y="-28.4226074219" type="line"/>
			<point x="727.3790283203" y="5.0709838867"/>
			<point x="525.5537719727" y="76.667175293"/>
			<point x="402.9385375977" y="81.032409668" type="qcurve" smooth="yes"/>
			<point x="277.6508789062" y="83.0020751953"/>
			<point x="-60.1047363281" y="34.3953857422"/>
		</contour>
	</outline>
</glyph>
<glyph name="three" format="2">
	<unicode hex="0033"/>
	<advance width="1098"/>
	<outline>
		<contour>
			<point x="-125.1234130859" y="256.1558837891" type="qcurve"/>
			<point x="-125.1234130859" y="337.3721313477"/>
			<point x="-13.6459350586" y="405.3261108398"/>
			<point x="55.1508789062" y="404.4138183594" type="qcurve"/>
			<point x="144.5369262695" y="404.2621459961" type="line"/>
			<point x="133.7123413086" y="357.1104736328"/>
			<point x="125.6246337891" y="303.0801391602"/>
			<point x="125.6246337891" y="264.8677978516" type="qcurve" smooth="yes"/>
			<point x="126.5369262695" y="179.4084472656"/>
			<point x="255.2959594727" y="85.2557373047"/>
			<point x="398.8121948242" y="85.2557373047" type="qcurve" smooth="yes"/>
			<point x="604.9064331055" y="85.2557373047"/>
			<point x="888.4784545898" y="285.3996582031"/>
			<point x="903.5661621094" y="474.2533569336" type="qcurve" smooth="yes"/>
			<point x="917.5661621094" y="614.0772094727"/>
			<point x="722.3690795898" y="779.5007324219"/>
			<point x="478.9338378906" y="784.4565429688" type="qcurve" smooth="yes"/>
			<point x="380.1690063477" y="784.7411499023" type="line"/>
			<point x="383.9393310547" y="901.9030761719" type="line"/>
			<point x="450.3605957031" y="901.9334106445" type="line" smooth="yes"/>
			<point x="655.1443481445" y="903.8489990234"/>
			<point x="917.9885864258" y="1042.714050293"/>
			<point x="924.9008789062" y="1175.3133544922" type="qcurve" smooth="yes"/>
			<point x="926.9885864258" y="1255.1343994141"/>
			<point x="794.3796386719" y="1346.9940185547"/>
			<point x="680.6708374023" y="1346.9940185547" type="qcurve" smooth="yes"/>
			<point x="522.2132568359" y="1346.9940185547"/>
			<point x="297.216003418" y="1247.240234375"/>
			<point x="247.4942016602" y="1225.9149780273" type="qcurve"/>
			<point x="204.9514770508" y="1332.9370117188" type="line"/>
			<point x="248.2848510742" y="1384.9694824219"/>
			<point x="541.7245483398" y="1542.4764404297"/>
			<point x="711.9858398438" y="1542.1893920898" type="qcurve" smooth="yes"/>
			<point x="863.5956420898" y="1541.90234375"/>
			<point x="1073.7894897461" y="1373.2977294922"/>
			<point x="1064.7894897461" y="1218.4799194336" type="qcurve" smooth="yes"/>
			<point x="1056.7894897461" y="1067.6317749023"/>
			<point x="887.6746826172" y="887.7252197266"/>
			<point x="721.7911987305" y="855.3546142578" type="qcurve"/>
			<point x="718.87890625" y="849.2332763672" type="line"/>
			<point x="854.1942749023" y="833.7545166016"/>
			<point x="1064.3318481445" y="627.9323730469"/>
			<point x="1056.3318481445" y="478.65625" type="qcurve" smooth="yes"/>
			<point x="1047.0687255859" y="242.3184204102"/>
			<point x="667.1032714844" y="-26"/>
			<point x="355.4526367188" y="-26" type="qcurve" smooth="yes"/>
			<point x="119.1959838867" y="-26"/>
			<point x="-125.1234130859" y="129.8539428711"/>
		</contour>
	</outline>
</glyph>
<glyph name="four" format="2">
	<unicode hex="0034"/>
	<advance width="1282"/>
	<outline>
		<contour>
			<point x="-73.0889282227" y="430.5119628906" type="line"/>
			<point x="13" y="539" type="line"/>
			<point x="1182.9732055664" y="1575.4851074219" type="line"/>
			<point x="1117.2184448242" y="1443.4851074219" type="line"/>
			<point x="1142.2184448242" y="1398.4851074219" type="line"/>
			<point x="972.6693115234" y="539.1610107422" type="line"/>
			<point x="963.6693115234" y="506.1610107422" type="line"/>
			<point x="908.2739257812" y="188.9424438477" type="line"/>
			<point x="937.7582397461" y="118" type="line"/>
			<point x="869.5130004883" y="-34" type="line"/>
			<point x="689.5130004883" y="71" type="line"/>
			<point x="795.4240722656" y="502.1610107422" type="line"/>
			<point x="805.4240722656" y="539.1610107422" type="line"/>
			<point x="962.2349243164" y="1272.8774414062" type="line"/>
			<point x="168" y="559" type="line"/>
			<point x="135.4645996094" y="565.0998535156" type="line"/>
			<point x="896.0997924805" y="555.4986572266" type="line"/>
			<point x="1236.7745361328" y="557.4986572266" type="line"/>
			<point x="1213.2823486328" y="421.5119628906" type="line"/>
			<point x="903.6076049805" y="426.8413085938" type="line"/>
		</contour>
	</outline>
</glyph>
<glyph name="five" format="2">
	<unicode hex="0035"/>
	<advance width="1065"/>
	<outline>
		<contour>
			<point x="-135.4863891602" y="239.4277954102" type="qcurve" smooth="yes"/>
			<point x="-135.4863891602" y="316.9717407227"/>
			<point x="-61.7390136719" y="398.3181152344"/>
			<point x="0.5136108398" y="395.4789428711" type="qcurve"/>
			<point x="66.2201538086" y="397.3576049805" type="line"/>
			<point x="66.2201538086" y="300.9410400391" type="line" smooth="yes"/>
			<point x="66.2201538086" y="196.9372558594"/>
			<point x="202.3057861328" y="96.8505859375"/>
			<point x="359.5177001953" y="96.8505859375" type="qcurve" smooth="yes"/>
			<point x="576.3259277344" y="96.8505859375"/>
			<point x="809.6063842773" y="195.2109375"/>
			<point x="845.5711669922" y="478.5584716797" type="qcurve" smooth="yes"/>
			<point x="882.4482421875" y="743.6853637695"/>
			<point x="575.6160888672" y="870.3466186523"/>
			<point x="330.78515625" y="803.0997314453" type="qcurve" smooth="yes"/>
			<point x="205.673828125" y="770.8053588867" type="line"/>
			<point x="146.418762207" y="851.1713867188" type="line"/>
			<point x="321.0588989258" y="1496.9097900391" type="line"/>
			<point x="351.9711914062" y="1529.8794555664" type="line"/>
			<point x="1052.8682250977" y="1529.8794555664" type="line"/>
			<point x="1036.3582763672" y="1427.8851318359" type="line"/>
			<point x="442.5578613281" y="1427.8851318359" type="line"/>
			<point x="432.5578613281" y="1416.6727905273" type="line"/>
			<point x="391.6619262695" y="1254.4565429688"/>
			<point x="317.7355957031" y="964.7051391602"/>
			<point x="280.454284668" y="899.0592651367" type="qcurve"/>
			<point x="622.1024780273" y="997.8838500977" type="line"/>
			<point x="824.3338623047" y="1010.4805297852"/>
			<point x="1039.9939575195" y="729.7115478516"/>
			<point x="1009.8537597656" y="487.6787719727" type="qcurve" smooth="yes"/>
			<point x="981.3627319336" y="210.3522949219"/>
			<point x="589.7086181641" y="-11"/>
			<point x="284.8500976562" y="-11" type="qcurve" smooth="yes"/>
			<point x="103.322265625" y="-11"/>
			<point x="-135.4863891602" y="134.9717407227"/>
		</contour>
	</outline>
</glyph>
<glyph name="six" format="2">
	<unicode hex="0036"/>
	<advance width="1049"/>
	<outline>
		<contour>
			<point x="3.2631225586" y="637.8554077148" type="qcurve" smooth="yes"/>
			<point x="31.4033203125" y="939.3502807617"/>
			<point x="664.2513427734" y="1538.8178100586"/>
			<point x="1097.932800293" y="1581.9411621094" type="qcurve"/>
			<point x="1118.0440063477" y="1445.5919799805" type="line"/>
			<point x="705.5674438477" y="1365.7673950195"/>
			<point x="208.7349853516" y="942.7197265625"/>
			<point x="139.5219116211" y="414.8749389648" type="qcurve" smooth="yes"/>
			<point x="118.9592285156" y="268.2011108398"/>
			<point x="209.8306274414" y="106.5724487305"/>
			<point x="403.350769043" y="105.66015625" type="qcurve" smooth="yes"/>
			<point x="585.8714599609" y="103.8355712891"/>
			<point x="802.9066162109" y="306.3265380859"/>
			<point x="810.0562744141" y="538.5170898438" type="qcurve" smooth="yes"/>
			<point x="812.3327636719" y="673.8872680664"/>
			<point x="702.8442993164" y="770.5681152344"/>
			<point x="608.7404785156" y="771.4804077148" type="qcurve" smooth="yes"/>
			<point x="533.7904663086" y="772.3927001953"/>
			<point x="398.0002441406" y="730.1605224609"/>
			<point x="334.1750488281" y="694.0402832031" type="qcurve"/>
			<point x="338.1328735352" y="778.8677978516" type="line"/>
			<point x="388.6220092773" y="828.211730957"/>
			<point x="487.0860595703" y="896.8387451172"/>
			<point x="598.1256713867" y="895.9264526367" type="qcurve" smooth="yes"/>
			<point x="738.4451293945" y="894.1018676758"/>
			<point x="969.8153076172" y="651.0026245117"/>
			<point x="940.4119873047" y="466.2469482422" type="qcurve" smooth="yes"/>
			<point x="907.9209594727" y="198.4141235352"/>
			<point x="572.3592529297" y="-25.9122924805"/>
			<point x="345.7369995117" y="-11" type="qcurve" smooth="yes"/>
			<point x="175.0024414062" y="2.9122924805"/>
			<point x="-27.5262451172" y="354.9372558594"/>
		</contour>
	</outline>
</glyph>
<glyph name="seven" format="2">
	<unicode hex="0037"/>
	<advance width="974"/>
	<outline>
		<contour>
			<point x="-67.3284301758" y="1258.3948974609" type="line"/>
			<point x="16.426940918" y="1531.9401245117" type="line"/>
			<point x="1085.6683959961" y="1529.9401245117" type="line"/>
			<point x="1124.5648803711" y="1393.3485717773" type="line"/>
			<point x="799.9100952148" y="1033.3884277344"/>
			<point x="407.2031860352" y="338.1295776367"/>
			<point x="236.0526123047" y="62.7876586914" type="qcurve"/>
			<point x="183.0777587891" y="-14.7503051758" type="line"/>
			<point x="57.0874633789" y="-6.4807128906" type="line"/>
			<point x="212.6005249023" y="374.8055419922"/>
			<point x="703.1401977539" y="1049.2744140625"/>
			<point x="967.0164794922" y="1443.4604492188" type="qcurve"/>
			<point x="952.8807983398" y="1462.4604492188" type="line"/>
			<point x="136.7942504883" y="1462.5933837891" type="line"/>
			<point x="34.6702270508" y="1256.8026123047" type="line"/>
		</contour>
	</outline>
</glyph>
<glyph name="eight" format="2">
	<unicode hex="0038"/>
	<advance width="1106"/>
	<outline>
		<contour>
			<point x="578.8379516602" y="900.2674560547" type="qcurve"/>
			<point x="688.409362793" y="846.3424072266" type="line"/>
			<point x="517.9234008789" y="773.4689941406"/>
			<point x="219.9296264648" y="486.5764770508"/>
			<point x="229.0222167969" y="338.829284668" type="qcurve" smooth="yes"/>
			<point x="235.3779296875" y="248.0397949219"/>
			<point x="371.8717651367" y="106.4341430664"/>
			<point x="525.7984619141" y="107.3464355469" type="qcurve" smooth="yes"/>
			<point x="692.200012207" y="109.1710205078"/>
			<point x="936.1832275391" y="286.8787841797"/>
			<point x="930.090637207" y="412.6725463867" type="qcurve" smooth="yes"/>
			<point x="924.998046875" y="578.6895751953"/>
			<point x="681.237121582" y="782.1575317383"/>
			<point x="542.5539550781" y="880.6455078125" type="qcurve" smooth="yes"/>
			<point x="442.6259765625" y="953.7595214844"/>
			<point x="209.1688842773" y="1150.0430908203"/>
			<point x="190.923034668" y="1249.8828735352" type="qcurve" smooth="yes"/>
			<point x="175.4140625" y="1334.3831176758"/>
			<point x="364.4035644531" y="1555.8760986328"/>
			<point x="666.6896362305" y="1557.7006835938" type="qcurve" smooth="yes"/>
			<point x="882.5883789062" y="1559.5252685547"/>
			<point x="1057.2299804688" y="1387.4831542969"/>
			<point x="1064.5940551758" y="1296.5725708008" type="qcurve" smooth="yes"/>
			<point x="1073.5291137695" y="1153.5397949219"/>
			<point x="810.4715576172" y="953.86328125"/>
			<point x="549.8533325195" y="857.901184082" type="qcurve"/>
			<point x="426.3001098633" y="915.0645751953" type="line"/>
			<point x="603.2417602539" y="990.2190551758"/>
			<point x="818.1168823242" y="1214.3034057617"/>
			<point x="801.7495117188" y="1310.610168457" type="qcurve" smooth="yes"/>
			<point x="787.2370605469" y="1350.2805175781"/>
			<point x="733.7414550781" y="1415.5490722656"/>
			<point x="633.1099243164" y="1415.5490722656" type="qcurve" smooth="yes"/>
			<point x="455.8640136719" y="1414.6367797852"/>
			<point x="295.4660644531" y="1289.7842407227"/>
			<point x="300.9398193359" y="1191.8275146484" type="qcurve" smooth="yes"/>
			<point x="307.3258666992" y="1121.5769042969"/>
			<point x="519.274230957" y="944.986328125"/>
			<point x="696.8980712891" y="843.2183837891" type="qcurve" smooth="yes"/>
			<point x="844.0072631836" y="757.8965454102"/>
			<point x="1025.0255126953" y="536.2213134766"/>
			<point x="1037.7369384766" y="435.6730957031" type="qcurve" smooth="yes"/>
			<point x="1056.8344116211" y="267.5078125"/>
			<point x="740.6611328125" y="-15.1754150391"/>
			<point x="431.733215332" y="-17" type="qcurve" smooth="yes"/>
			<point x="229.3436279297" y="-17.9122924805"/>
			<point x="-46.5638427734" y="168.1475830078"/>
			<point x="-62.0424804688" y="328.4253540039" type="qcurve" smooth="yes"/>
			<point x="-79.345703125" y="516.6640625"/>
			<point x="295.8104248047" y="814.6364746094"/>
		</contour>
	</outline>
</glyph>
<glyph name="nine" format="2">
	<unicode hex="0039"/>
	<advance width="1039"/>
	<outline>
		<contour>
			<point x="-92.8392333984" y="-73.0270385742" type="qcurve"/>
			<point x="-112.9504394531" y="63.3221435547" type="line"/>
			<point x="291.3154907227" y="143.1467285156"/>
			<point x="797.102722168" y="588.0700073242"/>
			<point x="858.1403808594" y="1110.1351318359" type="qcurve" smooth="yes"/>
			<point x="872.7030639648" y="1249.6123046875"/>
			<point x="752.934753418" y="1411.354675293"/>
			<point x="583.3295898438" y="1412.2669677734" type="qcurve" smooth="yes"/>
			<point x="420.1502075195" y="1414.0915527344"/>
			<point x="209.1090087891" y="1235.6590576172"/>
			<point x="186.8266601562" y="989.8163452148" type="qcurve" smooth="yes"/>
			<point x="165.4838256836" y="828.4461669922"/>
			<point x="270.7879638672" y="758.0686645508"/>
			<point x="389.0547485352" y="757.1563720703" type="qcurve" smooth="yes"/>
			<point x="463.0924682617" y="756.2440795898"/>
			<point x="600.3267211914" y="798.7421264648"/>
			<point x="664.6836547852" y="834.7294311523" type="qcurve"/>
			<point x="658.2000732422" y="750.0348510742" type="line"/>
			<point x="607.7109375" y="700.6909179688"/>
			<point x="509.246887207" y="632.0639038086"/>
			<point x="398.2072753906" y="632.9761962891" type="qcurve" smooth="yes"/>
			<point x="256.9755249023" y="634.80078125"/>
			<point x="27.9799194336" y="874.0074462891"/>
			<point x="56.4709472656" y="1058.7631225586" type="qcurve" smooth="yes"/>
			<point x="89.8742675781" y="1326.5049438477"/>
			<point x="425.4359741211" y="1552.5220336914"/>
			<point x="651.1459350586" y="1537.6097412109" type="qcurve" smooth="yes"/>
			<point x="807.892578125" y="1523.6974487305"/>
			<point x="1025.321472168" y="1160.3867797852"/>
			<point x="994.5321044922" y="889.1486816406" type="qcurve" smooth="yes"/>
			<point x="965.4796142578" y="587.6538085938"/>
			<point x="316.0758056641" y="-29.9036865234"/>
		</contour>
	</outline>
</glyph>
<glyph name="A" format="2">
	<unicode hex="0041"/>
	<advance width="1443"/>
	<outline>
		<contour>
			<point x="-173.1618041992" y="0" type="line"/>
			<point x="-177.5357055664" y="99.9990234375" type="line"/>
			<point x="19.005065918" y="116.9990234375" type="line"/>
			<point x="355.0387573242" y="660" type="line"/>
			<point x="897.6209106445" y="1520" type="line"/>
			<point x="1043.5556640625" y="1502" type="line"/>
			<point x="1082.8790283203" y="655" type="line"/>
			<point x="1127.3571166992" y="119.9990234375" type="line"/>
			<point x="1326.7675170898" y="99.9990234375" type="line"/>
			<point x="1309.055480957" y="0" type="line"/>
			<point x="737.9975585938" y="0" type="line"/>
			<point x="766.7095947266" y="99.9990234375" type="line"/>
			<point x="960.1199951172" y="124.9990234375" type="line"/>
			<point x="922.7835693359" y="648" type="line"/>
			<point x="890.8224487305" y="1157.5534667969" type="line"/>
			<point x="884.0087890625" y="1265.5358276367" type="line"/>
			<point x="878.0087890625" y="1273.5358276367" type="line"/>
			<point x="793.5225830078" y="1160.9161987305" type="line"/>
			<point x="445.8718261719" y="634.6384277344" type="line"/>
			<point x="149.2272338867" y="116.9990234375" type="line"/>
			<point x="371.0939331055" y="99.9990234375" type="line"/>
			<point x="384.4678344727" y="0" type="line"/>
		</contour>
		<contour>
			<point x="267.4494628906" y="436.9597167969" type="line"/>
			<point x="344.2677001953" y="542.1755371094" type="line"/>
			<point x="608.5160522461" y="536.1755371094" type="line"/>
			<point x="593.0741577148" y="450.9597167969" type="line"/>
		</contour>
		<contour>
			<point x="611.5400390625" y="536.1755371094" type="line"/>
			<point x="1113.5873413086" y="544.1755371094" type="line"/>
			<point x="1121.8869628906" y="448.9597167969" type="line"/>
			<point x="596.0981445312" y="450.9597167969" type="line"/>
		</contour>
	</outline>
	<anchor name="bottom" x="523" y="0"/>
	<anchor name="ogonek" x="1098" y="0"/>
	<anchor name="top" x="954" y="1500"/>
	<anchor name="tonos" x="613" y="1500"/>
</glyph>
<glyph name="C" format="2">
	<unicode hex="0043"/>
	<advance width="1215"/>
	<outline>
		<contour>
			<point x="73.8340828071" y="849" type="qcurve" smooth="yes"/>
			<point x="155.8340828071" y="1226"/>
			<point x="732.2056038032" y="1561.7086181641"/>
			<point x="949.42893144" y="1521.2864990234" type="qcurve" smooth="yes"/>
			<point x="988.448096479" y="1513.1026611328"/>
			<point x="1130.6803244776" y="1458.1779174805"/>
			<point x="1140.0124777979" y="1441.0482177734" type="qcurve"/>
			<point x="1160.024990005" y="1423.8163452148" type="line"/>
			<point x="1167.9558371729" y="1411.099609375" type="line"/>
			<point x="1119.2832907862" y="1016.0817871094" type="line"/>
			<point x="1018.2655905909" y="1016.0817871094" type="line"/>
			<point x="1040.1994284815" y="1266.0960693359" type="line"/>
			<point x="1060.9792746729" y="1311.7106323242"/>
			<point x="973.434780044" y="1372.0576782227"/>
			<point x="903.8323630518" y="1383.496887207" type="qcurve" smooth="yes"/>
			<point x="651.0821799464" y="1420.2947387695"/>
			<point x="345.8411628853" y="1201"/>
			<point x="263.8411628853" y="789" type="qcurve" smooth="yes"/>
			<point x="191.8696663032" y="430"/>
			<point x="353.99178688" y="151.2112426758"/>
			<point x="528.5593527979" y="139.9041137695" type="qcurve" smooth="yes"/>
			<point x="723.6044577784" y="126.8682250977"/>
			<point x="938.6616584907" y="206.5869750977"/>
			<point x="1015.5235969673" y="317.2698364258" type="qcurve"/>
			<point x="1068.2678596626" y="282.2698364258" type="line"/>
			<point x="1094.596533979" y="229.713684082" type="line"/>
			<point x="1015.6086692042" y="93.4038085938"/>
			<point x="748.9362448878" y="-55.5209350586"/>
			<point x="501.0751716743" y="-10.286315918" type="qcurve" smooth="yes"/>
			<point x="300.8697883736" y="26.1000366211"/>
			<point x="-11.7813957085" y="462"/>
		</contour>
	</outline>
	<anchor name="bottom" x="596" y="0"/>
	<anchor name="top" x="906" y="1500"/>
</glyph>
<glyph name="D" format="2">
	<unicode hex="0044"/>
	<advance width="1394"/>
	<outline>
		<contour>
			<point x="-42.4298095703" y="0" type="line"/>
			<point x="-39.5" y="99.9990234375" type="line"/>
			<point x="151.4852294922" y="120.9990234375" type="line"/>
			<point x="284.2954101562" y="807" type="line"/>
			<point x="391.9755859375" y="1365.0009765625" type="line"/>
			<point x="176.7563476562" y="1387.0009765625" type="line"/>
			<point x="184.7227783203" y="1500" type="line"/>
			<point x="841.2194824219" y="1500" type="line" smooth="yes"/>
			<point x="1037.2916870117" y="1500"/>
			<point x="1330.3620605469" y="1118.2786865234"/>
			<point x="1259.0023193359" y="725" type="qcurve" smooth="yes"/>
			<point x="1190.7704467773" y="348.616394043"/>
			<point x="809.8558349609" y="0"/>
			<point x="502.7276611328" y="0" type="qcurve" smooth="yes"/>
		</contour>
		<contour>
			<point x="306.4830322266" y="106.9113769531" type="line"/>
			<point x="334.4141845703" y="102.9113769531"/>
			<point x="458.6411743164" y="99.9113769531"/>
			<point x="514.7592163086" y="99.9113769531" type="qcurve" smooth="yes"/>
			<point x="751.0686035156" y="99.9113769531"/>
			<point x="998.3927001953" y="313.3996582031"/>
			<point x="1085.8621826172" y="750" type="qcurve" smooth="yes"/>
			<point x="1165.6159057617" y="1159.7060546875"/>
			<point x="988.4030151367" y="1393.5981445312"/>
			<point x="742.1584472656" y="1394.5981445312" type="qcurve" smooth="yes"/>
			<point x="681.4240112305" y="1394.5981445312"/>
			<point x="585.1190795898" y="1390.5981445312"/>
			<point x="557.8043212891" y="1387.5981445312" type="qcurve"/>
			<point x="435.8424072266" y="754" type="line"/>
		</contour>
	</outline>
	<anchor name="bottom" x="686" y="0"/>
	<anchor name="center" x="448" y="754"/>
	<anchor name="top" x="827" y="1500"/>
	<anchor name="liga" x="1431" y="0"/>
</glyph>
<glyph name="E" format="2">
	<unicode hex="0045"/>
	<advance width="1200"/>
	<outline>
		<contour>
			<point x="-46.6464233398" y="0" type="line"/>
			<point x="-44.249206543" y="99.9990234375" type="line"/>
			<point x="142.1500854492" y="121.9990234375" type="line"/>
			<point x="281.2202758789" y="819" type="line"/>
			<point x="381.2904663086" y="1365.0009765625" type="line"/>
			<point x="181.7070922852" y="1387.0009765625" type="line"/>
			<point x="187.5061645508" y="1500" type="line"/>
			<point x="1176.0389404297" y="1500" type="line"/>
			<point x="1130.2493896484" y="1156.2136230469" type="line"/>
			<point x="1038.60546875" y="1156.2136230469" type="line"/>
			<point x="1022.3098144531" y="1378.9279785156" type="line"/>
			<point x="580.7503662109" y="1378.9279785156" type="line"/>
			<point x="540.7503662109" y="1354.9279785156" type="line"/>
			<point x="429.4840087891" y="783" type="line"/>
			<point x="311.4163818359" y="145.4758300781" type="line"/>
			<point x="331.4163818359" y="118.4758300781" type="line"/>
			<point x="867.677734375" y="118.4758300781" type="line"/>
			<point x="973.5212402344" y="384.8796386719" type="line"/>
			<point x="1074.0384521484" y="384.8796386719" type="line"/>
			<point x="981.0389404297" y="0" type="line"/>
		</contour>
		<contour>
			<point x="177.8890380859" y="727.2895507812" type="line"/>
			<point x="197.8793334961" y="831.2622070312" type="line"/>
			<point x="805.9644775391" y="835.2622070312" type="line"/>
			<point x="898.4564208984" y="986.9777832031" type="line"/>
			<point x="962.2692871094" y="986.9777832031" type="line"/>
			<point x="877.9169921875" y="537.4895019531" type="line"/>
			<point x="817.0618896484" y="537.4895019531" type="line"/>
			<point x="789.2308349609" y="716.2895507812" type="line"/>
		</contour>
	</outline>
	<anchor name="bottom" x="518" y="0"/>
	<anchor name="ogonek" x="827" y="0"/>
	<anchor name="top" x="789" y="1500"/>
	<anchor name="tonos" x="81" y="1500"/>
</glyph>
<glyph name="H" format="2">
	<unicode hex="0048"/>
	<advance width="1616"/>
	<outline>
		<contour>
			<point x="-50.7208862305" y="0" type="line"/>
			<point x="-47.7910766602" y="99.9990234375" type="line"/>
			<point x="139.6734008789" y="119.9990234375" type="line"/>
			<point x="269.7435913086" y="796" type="line"/>
			<point x="379.8137817383" y="1365.0009765625" type="line"/>
			<point x="180.3604125977" y="1388.0009765625" type="line"/>
			<point x="185.4317016602" y="1500" type="line"/>
			<point x="740.3464355469" y="1500" type="line"/>
			<point x="725.94921875" y="1388.0009765625" type="line"/>
			<point x="546.0825195312" y="1365.0009765625" type="line"/>
			<point x="433.7506713867" y="780" type="line"/>
			<point x="306.680480957" y="119.9990234375" type="line"/>
			<point x="501.5360717773" y="99.9990234375" type="line"/>
			<point x="498.9321899414" y="0" type="line"/>
		</contour>
		<contour>
			<point x="357.8316040039" y="713.1838378906" type="line"/>
			<point x="372.6709594727" y="830.2875976562" type="line"/>
			<point x="782.9741821289" y="830.2875976562" type="line"/>
			<point x="1142.8693847656" y="830.2875976562" type="line"/>
			<point x="1128.0300292969" y="713.1838378906" type="line"/>
			<point x="765.6747436523" y="715.1838378906" type="line"/>
		</contour>
		<contour>
			<point x="833.0792236328" y="0" type="line"/>
			<point x="843.0090332031" y="99.9990234375" type="line"/>
			<point x="1027.4735107422" y="119.9990234375" type="line"/>
			<point x="1156.5437011719" y="789" type="line"/>
			<point x="1267.6138916016" y="1365.0009765625" type="line"/>
			<point x="1078.1605224609" y="1388.0009765625" type="line"/>
			<point x="1085.2318115234" y="1500" type="line"/>
			<point x="1657.8389892578" y="1500" type="line"/>
			<point x="1637.4417724609" y="1388.0009765625" type="line"/>
			<point x="1434.1076660156" y="1365.0009765625" type="line"/>
			<point x="1320.0374755859" y="771" type="line"/>
			<point x="1193.9672851562" y="119.9990234375" type="line"/>
			<point x="1392.2902832031" y="99.9990234375" type="line"/>
			<point x="1389.6864013672" y="0" type="line"/>
		</contour>
	</outline>
	<anchor name="bottom" x="607" y="0"/>
	<anchor name="center" x="820" y="1079"/>
	<anchor name="top" x="950" y="1500"/>
	<anchor name="tonos" x="81" y="1500"/>
	<anchor name="cy_descender" x="1399" y="100"/>
</glyph>
<glyph name="K" format="2">
	<unicode hex="004B"/>
	<advance width="1346"/>
	<outline>
		<contour>
			<point x="-49.3940429688" y="0" type="line"/>
			<point x="-53.7901611328" y="99.9990234375" type="line"/>
			<point x="138.9350585938" y="119.9990234375" type="line"/>
			<point x="285.0052490234" y="848" type="line"/>
			<point x="379.9454345703" y="1365.0009765625" type="line"/>
			<point x="178.0246582031" y="1387.0009765625" type="line"/>
			<point x="182.7585449219" y="1500" type="line"/>
			<point x="736.717956543" y="1500" type="line"/>
			<point x="728.9840698242" y="1387.0009765625" type="line"/>
			<point x="551.3125610352" y="1365.0009765625" type="line"/>
			<point x="438.2423706055" y="806" type="line"/>
			<point x="307.692199707" y="118.9990234375" type="line"/>
			<point x="502.8322143555" y="99.9990234375" type="line"/>
			<point x="494.2283325195" y="0" type="line"/>
		</contour>
		<contour>
			<point x="524.8048706055" y="738.6614990234" type="line"/>
			<point x="554.7155151367" y="872.9658813477" type="line"/>
			<point x="1068.5788574219" y="1369.0009765625" type="line"/>
			<point x="875.3310546875" y="1387.0009765625" type="line"/>
			<point x="889.0649414062" y="1500" type="line"/>
			<point x="1443.1134033203" y="1500" type="line"/>
			<point x="1429.3795166016" y="1387.0009765625" type="line"/>
			<point x="1215.5900878906" y="1369.0009765625" type="line"/>
		</contour>
		<contour>
			<point x="570.0104370117" y="817.9090576172" type="line"/>
			<point x="719.106628418" y="971.2196044922" type="line"/>
			<point x="1094.4628295898" y="114.9990234375" type="line"/>
			<point x="1281.1450805664" y="99.9990234375" type="line"/>
			<point x="1274.5411987305" y="0" type="line"/>
			<point x="754.1892089844" y="0" type="line"/>
			<point x="763.7930908203" y="99.9990234375" type="line"/>
			<point x="911.5257568359" y="114.9990234375" type="line"/>
		</contour>
	</outline>
	<anchor name="bottom" x="607" y="0"/>
	<anchor name="top" x="896" y="1500"/>
	<anchor name="kai_tail" x="1201" y="100"/>
</glyph>
<glyph name="P" format="2">
	<unicode hex="0050"/>
	<advance width="1147"/>
	<outline>
		<contour>
			<point x="-51.9266357422" y="0" type="line"/>
			<point x="-52.3227539062" y="99.9990234375" type="line"/>
			<point x="139.1950683594" y="119.9990234375" type="line"/>
			<point x="285.0052490234" y="848" type="line"/>
			<point x="379.6854248047" y="1365.0009765625" type="line"/>
			<point x="181.8179931641" y="1387.0009765625" type="line"/>
			<point x="192.6170654297" y="1500" type="line"/>
			<point x="860.2755126953" y="1500" type="line" smooth="yes"/>
			<point x="954.0979003906" y="1500"/>
			<point x="1091.0084838867" y="1278.5517578125"/>
			<point x="1058.65625" y="1065.30859375" type="qcurve" smooth="yes"/>
			<point x="1025.4033813477" y="847.2641601562"/>
			<point x="821.3119506836" y="618.6171875"/>
			<point x="682.8356933594" y="618.6171875" type="qcurve" smooth="yes"/>
			<point x="552.3939819336" y="618.6171875"/>
			<point x="372.8319091797" y="641.5707397461"/>
			<point x="330.1166992188" y="647.7165527344" type="qcurve"/>
			<point x="353.5522460938" y="755" type="line"/>
			<point x="415.3661499023" y="746"/>
			<point x="480.4057617188" y="743"/>
			<point x="590.0395507812" y="743" type="qcurve" smooth="yes"/>
			<point x="657.8534545898" y="743"/>
			<point x="812.5936889648" y="871.4946289062"/>
			<point x="843.5936889648" y="1041.4946289062" type="qcurve" smooth="yes"/>
			<point x="879.5936889648" y="1239.4946289062"/>
			<point x="867.5611572266" y="1386.8962402344"/>
			<point x="769.3571166992" y="1386.8962402344" type="qcurve" smooth="yes"/>
			<point x="580.9310913086" y="1386.8962402344" type="line"/>
			<point x="540.0903930664" y="1351.684387207" type="line"/>
			<point x="428.5522460938" y="764" type="line"/>
			<point x="307.7420654297" y="117.9990234375" type="line"/>
			<point x="557.1309814453" y="99.9990234375" type="line"/>
			<point x="542.5270996094" y="0" type="line"/>
		</contour>
	</outline>
	<anchor name="bottom" x="634" y="0"/>
	<anchor name="top" x="634" y="1500"/>
</glyph>
<glyph name="R" format="2">
	<unicode hex="0052"/>
	<advance width="1190"/>
	<outline>
		<contour>
			<point x="-74.178527832" y="0" type="line"/>
			<point x="-71.2487182617" y="99.9990234375" type="line"/>
			<point x="119.4765014648" y="113.9990234375" type="line"/>
			<point x="265.5466918945" y="848" type="line"/>
			<point x="360.4868774414" y="1365.0009765625" type="line"/>
			<point x="156.6594848633" y="1387.0009765625" type="line"/>
			<point x="160.6259155273" y="1500" type="line"/>
			<point x="701.7072753906" y="1500" type="line" smooth="yes"/>
			<point x="895.0377197266" y="1500"/>
			<point x="1021.6112060547" y="1280.6447753906"/>
			<point x="994.6712646484" y="1089.9047851562" type="qcurve" smooth="yes"/>
			<point x="972.2544555664" y="911.462890625"/>
			<point x="698.6055908203" y="705.8095703125"/>
			<point x="781.4836425781" y="705.8095703125" type="qcurve" smooth="yes"/>
			<point x="696.2459716797" y="705.8095703125"/>
			<point x="553.1827392578" y="704.8095703125"/>
			<point x="502.1827392578" y="709.8095703125" type="qcurve"/>
			<point x="514.3201904297" y="825" type="line"/>
			<point x="446.9162597656" y="825" type="line"/>
			<point x="583.1778564453" y="825" type="line" smooth="yes"/>
			<point x="682.7535400391" y="825"/>
			<point x="767.6271972656" y="919.4460449219"/>
			<point x="796.7268676758" y="1075.9047851562" type="qcurve" smooth="yes"/>
			<point x="826.7205200195" y="1243.2705078125"/>
			<point x="796.7414550781" y="1383.8095703125"/>
			<point x="709.1988525391" y="1383.8095703125" type="qcurve" smooth="yes"/>
			<point x="549.6659545898" y="1383.8095703125" type="line"/>
			<point x="513.984375" y="1356.9224243164" type="line"/>
			<point x="395.8370361328" y="734" type="line"/>
			<point x="284.8968505859" y="120.9990234375" type="line"/>
			<point x="512.08984375" y="99.9990234375" type="line"/>
			<point x="494.1600341797" y="0" type="line"/>
		</contour>
		<contour>
			<point x="588.7462768555" y="732.3802490234" type="line"/>
			<point x="745.4245605469" y="750" type="line"/>
			<point x="750.9265136719" y="710.3707885742" type="line" smooth="yes"/>
			<point x="796.2081298828" y="409.7842407227"/>
			<point x="882.7271118164" y="118.2348022461"/>
			<point x="1082.3353271484" y="94.8690185547" type="qcurve"/>
			<point x="1060.7153930664" y="0" type="line"/>
			<point x="987.4559326172" y="0" type="line" smooth="yes"/>
			<point x="791.8334960938" y="0"/>
			<point x="627.2459716797" y="434.768371582"/>
			<point x="597.5178833008" y="679.5819091797" type="qcurve" smooth="yes"/>
		</contour>
	</outline>
	<anchor name="bottom" x="573" y="0"/>
	<anchor name="top" x="670" y="1500"/>
</glyph>
<glyph name="S" format="2">
	<unicode hex="0053"/>
	<advance width="1085"/>
	<outline>
		<contour>
			<point x="-56.32421875" y="19.7341308594" type="line"/>
			<point x="48.3063964844" y="498.9357910156" type="line"/>
			<point x="146.4663696289" y="498.9357910156" type="line"/>
			<point x="146.4663696289" y="302.2897949219" type="line" smooth="yes"/>
			<point x="146.4663696289" y="211.2897949219"/>
			<point x="205.7137451172" y="114.2897949219"/>
			<point x="381.6004638672" y="114.2897949219" type="qcurve" smooth="yes"/>
			<point x="519.6379394531" y="114.2897949219"/>
			<point x="744.9612426758" y="235.072265625"/>
			<point x="755.9612426758" y="342.2359619141" type="qcurve" smooth="yes"/>
			<point x="766.9612426758" y="510.7350463867"/>
			<point x="468.5819702148" y="688.3143920898"/>
			<point x="377.1118164062" y="786.3989257812" type="qcurve" smooth="yes"/>
			<point x="341.8455810547" y="833.6898193359"/>
			<point x="155.0292358398" y="1084.6990966797"/>
			<point x="207.0292358398" y="1264.4327392578" type="qcurve" smooth="yes"/>
			<point x="255.0292358398" y="1356.7702026367"/>
			<point x="535.5496826172" y="1529"/>
			<point x="670.7131958008" y="1529" type="qcurve" smooth="yes"/>
			<point x="803.7892456055" y="1529"/>
			<point x="971.6120605469" y="1444.717956543"/>
			<point x="962.1580200195" y="1440" type="qcurve"/>
			<point x="1025.6411743164" y="1523.2517700195" type="line"/>
			<point x="1104.0767822266" y="1501.8012695312" type="line"/>
			<point x="1006.5604248047" y="1068.6652832031" type="line"/>
			<point x="903.5203857422" y="1068.6652832031" type="line"/>
			<point x="910.5203857422" y="1266.8032226562" type="line"/>
			<point x="914.5203857422" y="1327.8032226562"/>
			<point x="803.5728759766" y="1395.8032226562"/>
			<point x="696.3145141602" y="1395.8032226562" type="qcurve" smooth="yes"/>
			<point x="602.5787963867" y="1395.8032226562"/>
			<point x="421.9125366211" y="1288.0989379883"/>
			<point x="408.7204589844" y="1194.2933959961" type="qcurve" smooth="yes"/>
			<point x="392.5283813477" y="1054.6032714844"/>
			<point x="581.9020385742" y="948.0856933594"/>
			<point x="640.8083496094" y="893.4542236328" type="qcurve" smooth="yes"/>
			<point x="806.5147094727" y="740.3648681641"/>
			<point x="993.7479858398" y="509.3040161133"/>
			<point x="952.1967163086" y="316.8687133789" type="qcurve" smooth="yes"/>
			<point x="909.6454467773" y="147.7090454102"/>
			<point x="619.912109375" y="-11"/>
			<point x="451.0307617188" y="-11" type="qcurve" smooth="yes"/>
			<point x="231.3599243164" y="-11"/>
			<point x="87.02734375" y="82.1911010742"/>
			<point x="80.9232177734" y="95.2932128906" type="qcurve"/>
			<point x="16.3418579102" y="-1.1853027344" type="line"/>
		</contour>
	</outline>
	<anchor name="bottom" x="399" y="0"/>
	<anchor name="top" x="679" y="1500"/>
</glyph>
<glyph name="X" format="2">
	<unicode hex="0058"/>
	<advance width="1262"/>
	<outline>
		<contour>
			<point x="-171.241027832" y="0" type="line"/>
			<point x="-163.6371459961" y="99.9990234375" type="line"/>
			<point x="35.3821411133" y="128.9990234375" type="line"/>
			<point x="501.1414794922" y="742.5662231445" type="line"/>
			<point x="295.0925292969" y="1351.0009765625" type="line"/>
			<point x="106.1384277344" y="1387.0009765625" type="line"/>
			<point x="116.8723144531" y="1500" type="line"/>
			<point x="611.0127563477" y="1500" type="line"/>
			<point x="600.2788696289" y="1387.0009765625" type="line"/>
			<point x="463.9225463867" y="1353.0009765625" type="line"/>
			<point x="591.7920532227" y="1087.4041748047" type="line"/>
			<point x="631.0698852539" y="982.5065307617" type="line"/>
			<point x="641.0698852539" y="982.5065307617" type="line"/>
			<point x="725.2299804688" y="1097.9235839844" type="line"/>
			<point x="896.6605834961" y="1346.0009765625" type="line"/>
			<point x="715.9783325195" y="1387.0009765625" type="line"/>
			<point x="726.7122192383" y="1500" type="line"/>
			<point x="1290.9844360352" y="1500" type="line"/>
			<point x="1280.2505493164" y="1387.0009765625" type="line"/>
			<point x="1072.9053344727" y="1351.0009765625" type="line"/>
			<point x="670.0725708008" y="852.6632080078" type="line"/>
			<point x="930.5770263672" y="129.9990234375" type="line"/>
			<point x="1117.7918701172" y="99.9990234375" type="line"/>
			<point x="1110.1879882812" y="0" type="line"/>
			<point x="601.7581787109" y="0" type="line"/>
			<point x="609.3620605469" y="99.9990234375" type="line"/>
			<point x="765.2509765625" y="128.9990234375" type="line"/>
			<point x="591.5502929688" y="490.784362793" type="line"/>
			<point x="544.9220581055" y="611.3927612305" type="line"/>
			<point x="534.9220581055" y="611.3927612305" type="line"/>
			<point x="435.9770507812" y="475.787902832" type="line"/>
			<point x="211.6268920898" y="134.9990234375" type="line"/>
			<point x="423.3091430664" y="99.9990234375" type="line"/>
			<point x="412.3425292969" y="0" type="line"/>
		</contour>
	</outline>
	<anchor name="bottom" x="453" y="0"/>
	<anchor name="top" x="723" y="1500"/>
	<anchor name="cy_descender" x="1125" y="100"/>
	<anchor name="center" x="591" y="791"/>
</glyph>
<glyph name="Y" format="2">
	<unicode hex="0059"/>
	<advance width="1069"/>
	<outline>
		<contour>
			<point x="68.0856323242" y="0" type="line"/>
			<point x="70.6895141602" y="99.9990234375" type="line"/>
			<point x="290.2080688477" y="114.9990234375" type="line"/>
			<point x="391.4816894531" y="642.5038452148" type="line"/>
			<point x="342.5571289062" y="934.6565551758" type="line"/>
			<point x="223.3764038086" y="1346.0009765625" type="line"/>
			<point x="45.0204467773" y="1388.0009765625" type="line"/>
			<point x="52.7543334961" y="1500" type="line"/>
			<point x="568.1237182617" y="1500" type="line"/>
			<point x="560.389831543" y="1388.0009765625" type="line"/>
			<point x="385.1234741211" y="1355.0009765625" type="line"/>
			<point x="454.969909668" y="1074.4916381836" type="line"/>
			<point x="525.0220336914" y="825.2229003906" type="line"/>
			<point x="535.0220336914" y="825.2229003906" type="line"/>
			<point x="671.7786865234" y="1074.0801391602" type="line"/>
			<point x="828.7092895508" y="1348.0009765625" type="line"/>
			<point x="646.1403198242" y="1388.0009765625" type="line"/>
			<point x="653.874206543" y="1500" type="line"/>
			<point x="1168.41015625" y="1500" type="line"/>
			<point x="1160.6762695312" y="1388.0009765625" type="line"/>
			<point x="963.5803222656" y="1347.0009765625" type="line"/>
			<point x="747.1869506836" y="1004.2182617188" type="line"/>
			<point x="551.1576538086" y="638.6796264648" type="line"/>
			<point x="453.755065918" y="124.9990234375" type="line"/>
			<point x="693.741027832" y="99.9990234375" type="line"/>
			<point x="687.1371459961" y="0" type="line"/>
		</contour>
	</outline>
	<anchor name="bottom" x="443" y="0"/>
	<anchor name="top" x="731" y="1500"/>
	<anchor name="tonos" x="-13" y="1500"/>
	<anchor name="center" x="553" y="579"/>
</glyph>
<glyph name="a" format="2">
	<unicode hex="0061"/>
	<advance width="1079"/>
	<outline>
		<contour>
			<point x="-34.1531663978" y="324" type="qcurve" smooth="yes"/>
			<point x="-66.1037279212" y="562.5708007812"/>
			<point x="397.2845777428" y="1015.9869384766"/>
			<point x="580.5381788171" y="1015.9869384766" type="qcurve" smooth="yes"/>
			<point x="656.8786939538" y="1015.9869384766"/>
			<point x="747.3810743249" y="967.9869384766"/>
			<point x="780.7199415124" y="938.9869384766" type="qcurve"/>
			<point x="758.5522779382" y="1014.9869384766" type="line"/>
			<point x="817.0063795007" y="1014.9869384766" type="line"/>
			<point x="872.8030713952" y="800.9869384766" type="line"/>
			<point x="788.2233594811" y="393" type="line"/>
			<point x="758.9572461999" y="228" type="line"/>
			<point x="756.1308301842" y="168"/>
			<point x="779.8680128014" y="86"/>
			<point x="813.8002027428" y="20" type="qcurve"/>
			<point x="618.1352247155" y="-9" type="line"/>
			<point x="598.5402540124" y="25.2562255859"/>
			<point x="585.0841993249" y="155.9588623047"/>
			<point x="595.712373153" y="222.4630126953" type="qcurve"/>
			<point x="476.5281690514" y="120.7821044922"/>
			<point x="303.0408033288" y="-10"/>
			<point x="231.700654403" y="-10" type="qcurve" smooth="yes"/>
			<point x="71.8858350671" y="-10"/>
			<point x="-25.6407152259" y="159"/>
		</contour>
		<contour>
			<point x="141.7599805749" y="259.8264160156" type="qcurve" smooth="yes"/>
			<point x="139.9335645592" y="194.5241699219"/>
			<point x="205.1407178796" y="126.3714599609"/>
			<point x="277.5044874108" y="126.3714599609" type="qcurve" smooth="yes"/>
			<point x="417.5708936608" y="126.3714599609"/>
			<point x="590.9650586999" y="286"/>
			<point x="633.5636915124" y="526" type="qcurve" smooth="yes"/>
			<point x="690.8430494225" y="864.6154785156" type="line"/>
			<point x="676.7521070397" y="885.6154785156"/>
			<point x="589.4582837975" y="904.6524658203"/>
			<point x="538.3590406335" y="904.6524658203" type="qcurve" smooth="yes"/>
			<point x="341.920564071" y="904.6524658203"/>
			<point x="166.4045118249" y="582.5708007812"/>
		</contour>
	</outline>
	<anchor name="bottom" x="345" y="0"/>
	<anchor name="ogonek" x="732" y="0"/>
	<anchor name="top" x="608" y="1000"/>
</glyph>
<glyph name="b" format="2">
	<unicode hex="0062"/>
	<advance width="1072"/>
	<outline>
		<contour>
			<point x="42.4360961914" y="313" type="qcurve" smooth="yes"/>
			<point x="105.4360961914" y="633" type="line"/>
			<point x="274.5677490234" y="1456.1966552734" type="line"/>
			<point x="148.2993774414" y="1538.924621582" type="line"/>
			<point x="175.8892822266" y="1614.9241333008" type="line"/>
			<point x="351.34765625" y="1657.1961669922" type="line"/>
			<point x="431.34765625" y="1556.1961669922" type="line"/>
			<point x="237.6260986328" y="572" type="line"/>
			<point x="141.2852783203" y="107.7862548828" type="line" smooth="yes"/>
			<point x="131.2852783203" y="58.0692138672"/>
			<point x="162.7977294922" y="17.7862548828"/>
			<point x="207.3101806641" y="17.7862548828" type="qcurve" smooth="yes"/>
			<point x="457.7735595703" y="17.7862548828"/>
			<point x="781.0419311523" y="355.3559570312"/>
			<point x="785.1823120117" y="652.1517333984" type="qcurve" smooth="yes"/>
			<point x="785.5045776367" y="774.3237304688"/>
			<point x="717.7090454102" y="850.1741943359"/>
			<point x="630.6675415039" y="849.1741943359" type="qcurve" smooth="yes"/>
			<point x="520.5267944336" y="848.1741943359"/>
			<point x="326.8825683594" y="756.1505126953"/>
			<point x="207.8284912109" y="638.6215820312" type="qcurve"/>
			<point x="173.8654785156" y="721.3724365234" type="line"/>
			<point x="243.3643798828" y="823.1788330078"/>
			<point x="561.2903442383" y="1021.9990234375"/>
			<point x="671.0471191406" y="1021.9990234375" type="qcurve" smooth="yes"/>
			<point x="783.0353393555" y="1021.9990234375"/>
			<point x="955.8615112305" y="834.9990234375"/>
			<point x="955.6301879883" y="606.9990234375" type="qcurve" smooth="yes"/>
			<point x="974.4981079102" y="358.9990234375"/>
			<point x="517.5663452148" y="-32"/>
			<point x="261.0068359375" y="-32" type="qcurve" smooth="yes"/>
			<point x="129.086730957" y="-32"/>
			<point x="16.4360961914" y="155"/>
		</contour>
	</outline>
	<anchor name="bottom" x="571" y="0"/>
	<anchor name="top" x="571" y="1533"/>
</glyph>
<glyph name="c" format="2">
	<unicode hex="0063"/>
	<advance width="969"/>
	<outline>
		<contour>
			<point x="6.9340820312" y="490.9995117188" type="qcurve" smooth="yes"/>
			<point x="43.1245117188" y="731.4040527344"/>
			<point x="450.7136230469" y="1031.4280395508"/>
			<point x="642.7352905273" y="1031.4280395508" type="qcurve" smooth="yes"/>
			<point x="728.0161132812" y="1031.4280395508"/>
			<point x="874.3929443359" y="926.4154052734"/>
			<point x="869.3929443359" y="849.4732666016" type="qcurve" smooth="yes"/>
			<point x="865.3929443359" y="766.3044433594"/>
			<point x="782.9273681641" y="652.7401123047"/>
			<point x="738.0098266602" y="632.7401123047" type="qcurve"/>
			<point x="711.4943847656" y="658.7401123047" type="line"/>
			<point x="706.9274902344" y="804.5118408203" type="line" smooth="yes"/>
			<point x="706.5689697266" y="853.5118408203"/>
			<point x="681.6049804688" y="886.1852416992"/>
			<point x="596.5108642578" y="886.1852416992" type="qcurve" smooth="yes"/>
			<point x="412.6666259766" y="886.1852416992"/>
			<point x="236.5659790039" y="738.9516601562"/>
			<point x="197.35546875" y="541.2257080078" type="qcurve" smooth="yes"/>
			<point x="153.6174316406" y="324.3093261719"/>
			<point x="239.3741455078" y="130.4552612305"/>
			<point x="376.0836181641" y="130.4552612305" type="qcurve" smooth="yes"/>
			<point x="542.001159668" y="130.4552612305"/>
			<point x="755.2446899414" y="229.1881103516"/>
			<point x="785.005859375" y="292.0546875" type="qcurve"/>
			<point x="824.4792480469" y="248" type="line"/>
			<point x="824.4792480469" y="178" type="line"/>
			<point x="759.4641723633" y="98.3778076172"/>
			<point x="529.2177124023" y="-31.4290161133"/>
			<point x="318.6772460938" y="-31.4290161133" type="qcurve" smooth="yes"/>
			<point x="156.143737793" y="-31.4290161133"/>
			<point x="-31.4825439453" y="242.9163818359"/>
		</contour>
	</outline>
	<anchor name="bottom" x="343" y="0"/>
	<anchor name="top" x="600" y="1000"/>
</glyph>
<glyph name="d" format="2">
	<unicode hex="0064"/>
	<advance width="1087"/>
	<outline>
		<contour>
			<point x="-32.11328125" y="315.7259521484" type="qcurve" smooth="yes"/>
			<point x="-19.11328125" y="564.3803710938"/>
			<point x="379.6755371094" y="999.1734008789"/>
			<point x="664.4354858398" y="1007.2489013672" type="qcurve" smooth="yes"/>
			<point x="739.600769043" y="1007.2489013672" type="line"/>
			<point x="827.8998413086" y="1447.7995605469" type="line"/>
			<point x="682.8794555664" y="1535.7092895508" type="line"/>
			<point x="710.4693603516" y="1611.7088012695" type="line"/>
			<point x="920.6325073242" y="1658.7990722656" type="line"/>
			<point x="1000.6325073242" y="1557.7990722656" type="line"/>
			<point x="779.910949707" y="469" type="line"/>
			<point x="721.4008789062" y="144.9995117188" type="line"/>
			<point x="882.3166503906" y="137.0897827148" type="line"/>
			<point x="879.7267456055" y="46.0902709961" type="line"/>
			<point x="639.1321411133" y="-8" type="line"/>
			<point x="583.1321411133" y="76" type="line"/>
			<point x="567.1321411133" y="184" type="line"/>
			<point x="521.3517456055" y="90.9047851562"/>
			<point x="239.1458740234" y="-10"/>
			<point x="211.9426879883" y="-10" type="qcurve" smooth="yes"/>
			<point x="71.2728881836" y="-10"/>
			<point x="-41.11328125" y="147.7974853516"/>
		</contour>
		<contour>
			<point x="145.7182006836" y="314.6472167969" type="qcurve" smooth="yes"/>
			<point x="130.7182006836" y="219.1321411133"/>
			<point x="196.6173706055" y="139.7008056641"/>
			<point x="256.151184082" y="139.7008056641" type="qcurve" smooth="yes"/>
			<point x="403.3986206055" y="139.7008056641"/>
			<point x="577.7123413086" y="334.5252075195"/>
			<point x="613.331237793" y="513.9370117188" type="qcurve" smooth="yes"/>
			<point x="680.854309082" y="850.5323486328" type="line"/>
			<point x="665.8460083008" y="871.5323486328"/>
			<point x="626.5524902344" y="900.5323486328"/>
			<point x="582.9573974609" y="900.5323486328" type="qcurve" smooth="yes"/>
			<point x="398.2675170898" y="900.5323486328"/>
			<point x="189.7182006836" y="577.8559570312"/>
		</contour>
	</outline>
	<anchor name="bottom" x="604" y="0"/>
	<anchor name="center" x="876" y="1202"/>
	<anchor name="top" x="704" y="1534"/>
	<anchor name="topright" x="1076" y="1000"/>
	<anchor name="liga" x="1067" y="0"/>
</glyph>
<glyph name="e" format="2">
	<unicode hex="0065"/>
	<advance width="943"/>
	<outline>
		<contour>
			<point x="16.7040863403" y="541.9508666992" type="qcurve" smooth="yes"/>
			<point x="48.9468231567" y="778.8016357422"/>
			<point x="349.2179413208" y="1029.0942382812"/>
			<point x="601.4665985474" y="1029.0942382812" type="qcurve" smooth="yes"/>
			<point x="701.8181610474" y="1029.0942382812"/>
			<point x="828.7896576294" y="901.1569824219"/>
			<point x="818.8719940552" y="806.8297119141" type="qcurve" smooth="yes"/>
			<point x="811.1315155395" y="770.0424804688"/>
			<point x="790.1951141724" y="672.5454101562"/>
			<point x="784.6073456177" y="642.3803710938" type="qcurve"/>
			<point x="814.3811493286" y="637.3803710938" type="line"/>
			<point x="789.8451385864" y="513.5693359375" type="line"/>
			<point x="815.6249237427" y="514.2255249023"/>
			<point x="740.1080170044" y="514.815612793"/>
			<point x="746.2681122192" y="515.5693359375" type="qcurve" smooth="yes"/>
			<point x="122.7794647583" y="513.5693359375" type="line"/>
			<point x="121.5416717895" y="607.5709228516" type="line"/>
			<point x="719.1544647583" y="609.3803710938" type="line"/>
			<point x="731.5704193481" y="643.0743408203"/>
			<point x="757.1138153442" y="782.6049194336"/>
			<point x="750.0229339966" y="833.6005249023" type="qcurve" smooth="yes"/>
			<point x="741.2408295044" y="875.235168457"/>
			<point x="661.6462860474" y="923.885559082"/>
			<point x="587.8357391724" y="923.885559082" type="qcurve" smooth="yes"/>
			<point x="409.3534393677" y="923.885559082"/>
			<point x="194.7921600708" y="713.1720581055"/>
			<point x="159.3154755005" y="508.3803710938" type="qcurve" smooth="yes"/>
			<point x="129.8494720825" y="328.1584472656"/>
			<point x="232.2658539184" y="103.3615722656"/>
			<point x="372.0635223755" y="103.0087890625" type="qcurve" smooth="yes"/>
			<point x="507.7401581177" y="100.5858154297"/>
			<point x="639.4832001099" y="185.8682250977"/>
			<point x="704.9564667114" y="298.4141845703" type="qcurve"/>
			<point x="722.0044403442" y="254.7520751953" type="line"/>
			<point x="757.3433075317" y="211.1569824219" type="line"/>
			<point x="747.1386566528" y="158.9654541016"/>
			<point x="527.3788299927" y="-27.7239379883"/>
			<point x="383.4290008911" y="-23.2479248047" type="qcurve" smooth="yes"/>
			<point x="184.6669769653" y="-19.3237304688"/>
			<point x="-26.6826324097" y="277.6350708008"/>
		</contour>
	</outline>
	<anchor name="bottom" x="339" y="0"/>
	<anchor name="ogonek" x="495" y="0"/>
	<anchor name="top" x="601" y="1000"/>
</glyph>
<glyph name="f" format="2">
	<unicode hex="0066"/>
	<advance width="643"/>
	<outline>
		<contour>
			<point x="-335.6587524414" y="-427.7021484375" type="line" smooth="yes"/>
			<point x="-327.5198364258" y="-367.6491088867" type="line"/>
			<point x="-160.5099487305" y="-367.6491088867" type="line" smooth="yes"/>
			<point x="-85.5099487305" y="-369.6912231445"/>
			<point x="35.9484863281" y="-187.3665771484"/>
			<point x="96.2608032227" y="155.8798828125" type="qcurve" smooth="yes"/>
			<point x="222.3163452148" y="875.9990234375" type="line"/>
			<point x="222.3163452148" y="903.9990234375" type="line"/>
			<point x="282.9067382812" y="1201.6368408203" type="line" smooth="yes"/>
			<point x="334.6805419922" y="1453.8630371094"/>
			<point x="507.2684326172" y="1631.6368408203"/>
			<point x="612.3465576172" y="1631.6368408203" type="qcurve" smooth="yes"/>
			<point x="703.873046875" y="1631.6368408203"/>
			<point x="813.3327636719" y="1553.7155761719"/>
			<point x="813.3327636719" y="1485.7785644531" type="qcurve" smooth="yes"/>
			<point x="813.3327636719" y="1431.1588745117"/>
			<point x="757.9197998047" y="1343.0470581055"/>
			<point x="736.576171875" y="1343.0470581055" type="qcurve" smooth="yes"/>
			<point x="683.1206054688" y="1343.0470581055"/>
			<point x="667.576171875" y="1387.0470581055"/>
			<point x="667.576171875" y="1430.0470581055" type="qcurve" smooth="yes"/>
			<point x="667.576171875" y="1481.0470581055"/>
			<point x="642.9313354492" y="1516.9998168945"/>
			<point x="603.9428100586" y="1516.9998168945" type="qcurve" smooth="yes"/>
			<point x="530.9163818359" y="1516.9998168945"/>
			<point x="470.8611450195" y="1440.4439086914"/>
			<point x="454.3612670898" y="1342.0470581055" type="qcurve" smooth="yes"/>
			<point x="379.3047485352" y="901.9990234375" type="line"/>
			<point x="393.3047485352" y="876.9990234375" type="line"/>
			<point x="270.7692260742" y="199" type="line" smooth="yes"/>
			<point x="193.7081298828" y="-227.2506713867"/>
			<point x="19.5240478516" y="-486.7021484375"/>
			<point x="-99.6488647461" y="-486.7021484375" type="qcurve"/>
		</contour>
		<contour>
			<point x="18.2962646484" y="817.8218383789" type="line"/>
			<point x="35.3120117188" y="919.9990234375" type="line"/>
			<point x="234.3163452148" y="931.9990234375" type="line"/>
			<point x="628.7710571289" y="933.9990234375" type="line"/>
			<point x="618.8978271484" y="808.8218383789" type="line"/>
			<point x="334.2783813477" y="808.8218383789" type="line"/>
			<point x="241.3793334961" y="810.8218383789" type="line"/>
		</contour>
	</outline>
	<anchor name="bottom" x="217" y="0"/>
	<anchor name="top" x="554" y="1536"/>
</glyph>
<glyph name="g" format="2">
	<unicode hex="0067"/>
	<advance width="1073"/>
	<outline>
		<contour>
			<point x="-37.11328125" y="265" type="qcurve" smooth="yes"/>
			<point x="-71.6506347656" y="552.2493896484"/>
			<point x="391.1387939453" y="1010.8559570312"/>
			<point x="622.9254150391" y="1010.8559570312" type="qcurve" smooth="yes"/>
			<point x="690.6857910156" y="1010.8559570312"/>
			<point x="710.4819335938" y="960.8559570312"/>
			<point x="738.0687255859" y="933.8559570312" type="qcurve"/>
			<point x="687.5256958008" y="1013.8559570312" type="line"/>
			<point x="832.5256958008" y="1013.8559570312" type="line"/>
			<point x="905.211730957" y="798.8559570312" type="line"/>
			<point x="853.0333862305" y="586" type="line" smooth="yes"/>
			<point x="811.5809936523" y="413"/>
			<point x="770.7053222656" y="244.8637695312"/>
			<point x="720.1876831055" y="40.771484375" type="qcurve" smooth="yes"/>
			<point x="640.3700561523" y="-271.7338867188"/>
			<point x="249.5508422852" y="-498.2709960938"/>
			<point x="132.3052978516" y="-488.2709960938" type="qcurve"/>
			<point x="-34.1359863281" y="-427.2709960938" type="line"/>
			<point x="-32.1260375977" y="-361.6197509766" type="line"/>
			<point x="133.8853149414" y="-355.6197509766" type="line" smooth="yes"/>
			<point x="301.5384521484" y="-346.8693237305"/>
			<point x="512.1494140625" y="-176.2175292969"/>
			<point x="559.2897338867" y="74.771484375" type="qcurve" smooth="yes"/>
			<point x="588.0610961914" y="216.7109375" type="line"/>
			<point x="460.5203857422" y="100.8513183594"/>
			<point x="228.298828125" y="-11"/>
			<point x="199.4299926758" y="-11" type="qcurve" smooth="yes"/>
			<point x="81.8533935547" y="-11"/>
			<point x="-24.7661132812" y="148"/>
		</contour>
		<contour>
			<point x="132.9197998047" y="304" type="qcurve" smooth="yes"/>
			<point x="133.7628173828" y="243"/>
			<point x="179.239440918" y="170.7630004883"/>
			<point x="244.2643432617" y="170.7630004883" type="qcurve" smooth="yes"/>
			<point x="380.7439575195" y="170.7630004883"/>
			<point x="591.9703369141" y="300"/>
			<point x="620.0529785156" y="443" type="qcurve" smooth="yes"/>
			<point x="702.7864379883" y="845.9331054688" type="line"/>
			<point x="700.4848632812" y="867.7678222656"/>
			<point x="614.8565673828" y="894.9331054688"/>
			<point x="562.8399658203" y="894.9331054688" type="qcurve" smooth="yes"/>
			<point x="389.1416015625" y="894.9331054688"/>
			<point x="149.4733886719" y="570.5113525391"/>
		</contour>
	</outline>
	<anchor name="bottom" x="324" y="-416"/>
	<anchor name="top" x="603" y="1000"/>
</glyph>
<glyph name="h" format="2">
	<unicode hex="0068"/>
	<advance width="1147"/>
	<outline>
		<contour>
			<point x="9.610534668" y="5" type="line"/>
			<point x="-2.389465332" y="132" type="line"/>
			<point x="92.610534668" y="526" type="line"/>
			<point x="257.7750854492" y="1461.0053710938" type="line"/>
			<point x="106.2572631836" y="1540.3695068359" type="line"/>
			<point x="133.8471679688" y="1616.3690185547" type="line"/>
			<point x="334.3712768555" y="1662.0048828125" type="line"/>
			<point x="416.235168457" y="1561.0048828125" type="line"/>
			<point x="254.0468139648" y="586" type="line"/>
			<point x="153.0468139648" y="105" type="line"/>
			<point x="172.0468139648" y="26" type="line"/>
		</contour>
		<contour>
			<point x="638.7987060547" y="-14" type="line"/>
			<point x="608.7987060547" y="116" type="line"/>
			<point x="741.8851928711" y="762.9958496094" type="line" smooth="yes"/>
			<point x="752.5836181641" y="815.3927001953"/>
			<point x="688.2198486328" y="859.9958496094"/>
			<point x="612.1669921875" y="859.9958496094" type="qcurve" smooth="yes"/>
			<point x="515.7636108398" y="859.9958496094"/>
			<point x="326.6833496094" y="753.8009643555"/>
			<point x="265.8423461914" y="712.2272338867" type="qcurve"/>
			<point x="210.080078125" y="744.2601928711" type="line"/>
			<point x="298.9814453125" y="855.494934082"/>
			<point x="582.7766723633" y="1019.9990234375"/>
			<point x="645.2001953125" y="1019.9990234375" type="qcurve" smooth="yes"/>
			<point x="756.3928222656" y="1019.9990234375"/>
			<point x="910.5553588867" y="770.666015625"/>
			<point x="881.5443115234" y="638.9990234375" type="qcurve" smooth="yes"/>
			<point x="772.4448852539" y="149.9995117188" type="line"/>
			<point x="939.184753418" y="136.8168334961" type="line"/>
			<point x="937.5948486328" y="47.8173217773" type="line"/>
		</contour>
	</outline>
	<anchor name="bottom" x="420" y="0"/>
	<anchor name="center" x="347" y="1202"/>
	<anchor name="top" x="424" y="1534"/>
</glyph>
<glyph name="k" format="2">
	<unicode hex="006B"/>
	<advance width="1037"/>
	<outline>
		<contour>
			<point x="429.7224731445" y="403.1442871094" type="line"/>
			<point x="152.6491699219" y="198.3079833984" type="line"/>
			<point x="113.9288330078" y="254.0419921875" type="line"/>
			<point x="662.2279663086" y="687.8862304688" type="line"/>
			<point x="652.6501464844" y="750.0394897461"/>
			<point x="595.393737793" y="816.8271484375"/>
			<point x="529.9533691406" y="816.8271484375" type="qcurve" smooth="yes"/>
			<point x="467.129699707" y="816.8271484375"/>
			<point x="330.9331054688" y="718.6207885742"/>
			<point x="293.8895263672" y="691.3297119141" type="qcurve"/>
			<point x="267.3540039062" y="570.3306884766" type="line"/>
			<point x="177.1957397461" y="116" type="line"/>
			<point x="202.1957397461" y="27" type="line"/>
			<point x="11.610534668" y="5" type="line"/>
			<point x="-3.389465332" y="132" type="line"/>
			<point x="92.610534668" y="527" type="line"/>
			<point x="257.7494506836" y="1457.9895629883" type="line"/>
			<point x="116.5436401367" y="1542.9895629883" type="line"/>
			<point x="144.1335449219" y="1618.7990722656" type="line"/>
			<point x="365.71875" y="1658.7990722656" type="line"/>
			<point x="445.71875" y="1557.7990722656" type="line"/>
			<point x="302.4365844727" y="752.6441650391" type="line"/>
			<point x="367.5112915039" y="845.9786987305"/>
			<point x="544.0827636719" y="1008.9995727539"/>
			<point x="662.7102661133" y="1008.9995727539" type="qcurve" smooth="yes"/>
			<point x="756.4896240234" y="1008.9995727539"/>
			<point x="863.4421386719" y="881.3188476562"/>
			<point x="862.9201049805" y="802.9603881836" type="qcurve" smooth="yes"/>
			<point x="870.9028320312" y="742.5049438477" type="line"/>
			<point x="862.2996826172" y="718.3939208984" type="line"/>
			<point x="551.6262207031" y="488.2208862305" type="line"/>
		</contour>
		<contour>
			<point x="574.6466674805" y="587.4264526367" type="line"/>
			<point x="807.2541503906" y="143.9995117188" type="line"/>
			<point x="909.3431396484" y="137.6350708008" type="line"/>
			<point x="901.3431396484" y="47.635559082" type="line"/>
			<point x="749.8784179688" y="-10" type="line" smooth="yes"/>
			<point x="724.8846435547" y="-15.2611694336"/>
			<point x="685.9095458984" y="-3"/>
			<point x="637.1947631836" y="59" type="qcurve" smooth="yes"/>
			<point x="431.4419555664" y="448.1157226562" type="line"/>
		</contour>
	</outline>
	<anchor name="bottom" x="448" y="0"/>
	<anchor name="top" x="578" y="1534"/>
</glyph>
<glyph name="l" format="2">
	<unicode hex="006C"/>
	<advance width="548"/>
	<outline>
		<contour>
			<point x="43.0885620117" y="-16" type="line"/>
			<point x="-1.9114379883" y="119" type="line"/>
			<point x="101.0885620117" y="606" type="line"/>
			<point x="267.2445678711" y="1457.7995605469" type="line"/>
			<point x="133.9344482422" y="1540.7092895508" type="line"/>
			<point x="161.5243530273" y="1616.7088012695" type="line"/>
			<point x="359.8760375977" y="1658.7990722656" type="line"/>
			<point x="439.8760375977" y="1557.7990722656" type="line"/>
			<point x="253.3530273438" y="588" type="line"/>
			<point x="180.3229370117" y="156.9995117188" type="line"/>
			<point x="370.7556762695" y="135.8171386719" type="line"/>
			<point x="369.1657714844" y="49.2714233398" type="line"/>
		</contour>
	</outline>
	<anchor name="bottom" x="201" y="0"/>
	<anchor name="center" x="236" y="770"/>
	<anchor name="top" x="436" y="1534"/>
	<anchor name="topright" x="492" y="1000"/>
	<anchor name="centerright" x="707" y="742"/>
	<anchor name="liga" x="567" y="0"/>
</glyph>
<glyph name="m" format="2">
	<unicode hex="006D"/>
	<advance width="1770"/>
	<outline>
		<contour>
			<point x="44.0026855469" y="6" type="line"/>
			<point x="35.0026855469" y="133" type="line"/>
			<point x="123.455078125" y="495.2261962891" type="line"/>
			<point x="182.9483032227" y="802.9995117188" type="line"/>
			<point x="40.8613891602" y="793.91015625" type="line"/>
			<point x="41.4512939453" y="895.9096679688" type="line"/>
			<point x="107.8324584961" y="1008.9990234375" type="line"/>
			<point x="299.8324584961" y="1008.9990234375" type="line"/>
			<point x="311.3977050781" y="654.6683349609" type="line"/>
			<point x="319.7493286133" y="636.2261962891" type="line"/>
			<point x="205.2969360352" y="108" type="line"/>
			<point x="227.2969360352" y="25" type="line"/>
		</contour>
		<contour>
			<point x="669.0015869141" y="-9" type="line"/>
			<point x="649.0015869141" y="119" type="line"/>
			<point x="787.4494628906" y="762.2133178711" type="line" smooth="yes"/>
			<point x="794.7216796875" y="796.9329223633"/>
			<point x="738.4438476562" y="861.2133178711"/>
			<point x="659.7993164062" y="861.2133178711" type="qcurve" smooth="yes"/>
			<point x="569.1075439453" y="861.2133178711"/>
			<point x="370.9010620117" y="757.7043457031"/>
			<point x="287.7036132812" y="691.7133178711" type="qcurve"/>
			<point x="275.0489501953" y="745.4320068359" type="line"/>
			<point x="277.1134643555" y="769.3211669922"/>
			<point x="660.2510986328" y="1021.9995727539"/>
			<point x="777.7151489258" y="1021.9995727539" type="qcurve" smooth="yes"/>
			<point x="836.9175415039" y="1021.9995727539"/>
			<point x="978.8953857422" y="858.345703125"/>
			<point x="940.6640625" y="739.2298583984" type="qcurve" smooth="yes"/>
			<point x="815.9602050781" y="155" type="line"/>
			<point x="824.9602050781" y="28" type="line"/>
		</contour>
		<contour>
			<point x="1271.2092895508" y="-13" type="line"/>
			<point x="1243.2092895508" y="117" type="line"/>
			<point x="1377.6571655273" y="762.2133178711" type="line" smooth="yes"/>
			<point x="1384.9293823242" y="796.9329223633"/>
			<point x="1311.5834960938" y="861.2133178711"/>
			<point x="1236.9389648438" y="861.2133178711" type="qcurve" smooth="yes"/>
			<point x="1155.0430297852" y="861.2133178711"/>
			<point x="982.7275390625" y="765.9090576172"/>
			<point x="900.9533081055" y="712.467590332" type="qcurve"/>
			<point x="883.7763061523" y="771.4623413086" type="line"/>
			<point x="855.374206543" y="755.9886474609"/>
			<point x="1207.594909668" y="1021.9995727539"/>
			<point x="1324.9338989258" y="1021.9995727539" type="qcurve" smooth="yes"/>
			<point x="1436.8096313477" y="1021.9995727539"/>
			<point x="1557.565246582" y="848.8198242188"/>
			<point x="1529.3643188477" y="747.5208129883" type="qcurve" smooth="yes"/>
			<point x="1398.7429199219" y="149.9995117188" type="line"/>
			<point x="1566.1027832031" y="137.2712402344" type="line"/>
			<point x="1564.512878418" y="49.2717285156" type="line"/>
		</contour>
	</outline>
	<anchor name="bottom" x="958" y="0"/>
	<anchor name="top" x="958" y="1000"/>
	<anchor name="cy_descender" x="1572" y="134"/>
</glyph>
<glyph name="o" format="2">
	<unicode hex="006F"/>
	<advance width="1093"/>
	<outline>
		<contour>
			<point x="14.529049985" y="546.7940673828" type="qcurve" smooth="yes"/>
			<point x="65.1010104342" y="731.3492431641"/>
			<point x="344.5962524414" y="1021.5405883789"/>
			<point x="575.9966403171" y="1018.4692993164" type="qcurve" smooth="yes"/>
			<point x="778.7080078125" y="1017.6976928711"/>
			<point x="1015.3522949219" y="726.1840209961"/>
			<point x="941.659362793" y="470.5655517578" type="qcurve" smooth="yes"/>
			<point x="886.8411254883" y="282.7365112305"/>
			<point x="593.2194824219" y="-25.764465332"/>
			<point x="347.7535983249" y="-20.891784668" type="qcurve" smooth="yes"/>
			<point x="169.8479614258" y="-22.9846801758"/>
			<point x="-56.6564358548" y="279.6747436523"/>
		</contour>
		<contour>
			<point x="183.3471041842" y="526.0886230469" type="qcurve" smooth="yes"/>
			<point x="139.186649272" y="344.387308024"/>
			<point x="226.8286715671" y="92.9806518555"/>
			<point x="359.4995700046" y="87.0625610352" type="qcurve" smooth="yes"/>
			<point x="500.994830309" y="84.5007026059"/>
			<point x="718.4662884561" y="282.4928051154"/>
			<point x="757.7814303561" y="479.4519042969" type="qcurve" smooth="yes"/>
			<point x="799.1243943956" y="679.0239381508"/>
			<point x="677.7684875704" y="880.9254062789"/>
			<point x="545.400509946" y="890.9328613281" type="qcurve" smooth="yes"/>
			<point x="404.1776095553" y="902.8037109375"/>
			<point x="225.6047472453" y="705.3381339401"/>
		</contour>
	</outline>
	<anchor name="bottom" x="358" y="0"/>
	<anchor name="center" x="461" y="500"/>
	<anchor name="ogonek" x="514" y="0"/>
	<anchor name="top" x="584" y="1000"/>
	<anchor name="topright" x="663" y="1000"/>
	<anchor name="GRKtop" x="584" y="1000"/>
	<anchor name="yu_dash" x="83" y="498"/>
</glyph>
<glyph name="p" format="2">
	<unicode hex="0070"/>
	<advance width="1074"/>
	<outline>
		<contour>
			<point x="-85.8444824219" y="-391.0864257812" type="line"/>
			<point x="131.0466308594" y="637" type="line"/>
			<point x="157.8083496094" y="789.6776123047" type="line"/>
			<point x="120.8083496094" y="929.6776123047" type="line"/>
			<point x="120.21484375" y="1039.6776123047" type="line"/>
			<point x="234.21484375" y="1039.6776123047" type="line"/>
			<point x="274.6363525391" y="761.7932128906" type="line"/>
			<point x="339.166809082" y="841.7501220703"/>
			<point x="604.1884765625" y="1021.6776123047"/>
			<point x="704.9583740234" y="1021.6776123047" type="qcurve" smooth="yes"/>
			<point x="856.3565673828" y="1021.6776123047"/>
			<point x="979.9563598633" y="833.4383544922"/>
			<point x="967.303527832" y="619.5113525391" type="qcurve" smooth="yes"/>
			<point x="980.0888061523" y="389.2377929688"/>
			<point x="635.5645141602" y="16"/>
			<point x="345.9904785156" y="16" type="qcurve" smooth="yes"/>
			<point x="286.3127441406" y="16"/>
			<point x="181.6267089844" y="34"/>
			<point x="151.453125" y="47" type="qcurve"/>
			<point x="76.7110595703" y="-353.0869140625" type="line"/>
			<point x="233.9718017578" y="-388.7239990234" type="line"/>
			<point x="211.0127563477" y="-454.7235107422" type="line"/>
			<point x="31.1555175781" y="-486.0864257812" type="line"/>
		</contour>
		<contour>
			<point x="183.1200561523" y="174.3346557617" type="line"/>
			<point x="173.0090332031" y="111.2874145508"/>
			<point x="248.1331787109" y="72.5574951172"/>
			<point x="321.6622314453" y="72.5574951172" type="qcurve" smooth="yes"/>
			<point x="519.8233032227" y="72.5574951172"/>
			<point x="763.3299560547" y="235.8052978516"/>
			<point x="801.6014404297" y="685.5892944336" type="qcurve" smooth="yes"/>
			<point x="810.6215209961" y="778.0767211914"/>
			<point x="725.4707641602" y="837.5642089844"/>
			<point x="633.7632446289" y="837.5642089844" type="qcurve" smooth="yes"/>
			<point x="547.217590332" y="837.5642089844"/>
			<point x="359.4284667969" y="751.4854736328"/>
			<point x="284.6431884766" y="683.1366577148" type="qcurve"/>
			<point x="262.5484008789" y="566.5716552734" type="line"/>
		</contour>
	</outline>
	<anchor name="bottom" x="599" y="0"/>
	<anchor name="top" x="599" y="1000"/>
</glyph>
<glyph name="q" format="2">
	<unicode hex="0071"/>
	<advance width="1052"/>
	<outline>
		<contour>
			<point x="-34.11328125" y="324" type="qcurve" smooth="yes"/>
			<point x="-26.11328125" y="566.0589599609"/>
			<point x="372.3911077326" y="1015.8559570312"/>
			<point x="534.0380803888" y="1014.8559570312" type="qcurve" smooth="yes"/>
			<point x="602.6165715998" y="1014.8559570312"/>
			<point x="691.2777044123" y="963.8559570312"/>
			<point x="711.525629217" y="935.8559570312" type="qcurve"/>
			<point x="667.9974309748" y="1012.8559570312" type="line"/>
			<point x="810.9974309748" y="1012.8559570312" type="line"/>
			<point x="861.9974309748" y="805.8559570312" type="line"/>
			<point x="807.0452825373" y="562" type="line"/>
			<point x="618.4857732599" y="-344.0869140625" type="line"/>
			<point x="759.4565374201" y="-379.7239990234" type="line"/>
			<point x="729.4974920099" y="-454.7235107422" type="line"/>
			<point x="543.3721868342" y="-486.0864257812" type="line"/>
			<point x="452.3721868342" y="-391.0864257812" type="line"/>
			<point x="565.3707219904" y="140" type="line"/>
			<point x="561.3707219904" y="142" type="line"/>
			<point x="453.0070134943" y="75"/>
			<point x="260.7105712891" y="-10"/>
			<point x="215.6681518555" y="-10" type="qcurve" smooth="yes"/>
			<point x="115.688293457" y="-10"/>
			<point x="-39.11328125" y="160"/>
		</contour>
		<contour>
			<point x="123.151184082" y="305" type="qcurve" smooth="yes"/>
			<point x="112.151184082" y="245"/>
			<point x="167.0410711115" y="179.2070922852"/>
			<point x="236.6527654474" y="179.2070922852" type="qcurve" smooth="yes"/>
			<point x="362.8761541193" y="179.2070922852"/>
			<point x="561.367426092" y="287"/>
			<point x="603.8632757013" y="523" type="qcurve" smooth="yes"/>
			<point x="669.3705388849" y="844.9331054688" type="line"/>
			<point x="657.7300969904" y="868.2346801758"/>
			<point x="600.8704778498" y="894.9331054688"/>
			<point x="552.1927434748" y="894.9331054688" type="qcurve" smooth="yes"/>
			<point x="383.1028997248" y="894.9331054688"/>
			<point x="180.151184082" y="587.0589599609"/>
		</contour>
	</outline>
	<anchor name="bottom" x="594" y="0"/>
	<anchor name="top" x="594" y="1000"/>
</glyph>
<glyph name="r" format="2">
	<unicode hex="0072"/>
	<advance width="830"/>
	<outline>
		<contour>
			<point x="67.0899047852" y="-15" type="line"/>
			<point x="36.0899047852" y="124" type="line"/>
			<point x="135.0899047852" y="525" type="line"/>
			<point x="187.4116821289" y="804.2257080078" type="line"/>
			<point x="43.8703613281" y="794.6819458008" type="line"/>
			<point x="46.3103027344" y="897.6814575195" type="line"/>
			<point x="111.8847045898" y="1012.2252197266" type="line"/>
			<point x="302.8847045898" y="1012.2252197266" type="line"/>
			<point x="324.8847045898" y="810.2252197266" type="line"/>
			<point x="348.8847045898" y="737.2252197266" type="line"/>
			<point x="228.712890625" y="156.9995117188" type="line"/>
			<point x="420.8083496094" y="133.3627319336" type="line"/>
			<point x="416.0284423828" y="43.3632202148" type="line"/>
		</contour>
		<contour>
			<point x="609.4403686523" y="597.7958984375" type="line"/>
			<point x="620.0119018555" y="857.7964477539" type="line"/>
			<point x="529.9174194336" y="857.7964477539"/>
			<point x="333.0551147461" y="745.7958984375"/>
			<point x="257.0551147461" y="666.7958984375" type="qcurve"/>
			<point x="209.8847045898" y="721.2252197266" type="line"/>
			<point x="315.8847045898" y="836.2252197266"/>
			<point x="568.0509643555" y="1029.225769043"/>
			<point x="657.8041992188" y="1029.225769043" type="qcurve" smooth="yes"/>
			<point x="728.3732910156" y="1029.225769043"/>
			<point x="821.4906616211" y="934.225769043"/>
			<point x="821.4906616211" y="852.225769043" type="qcurve" smooth="yes"/>
			<point x="821.4906616211" y="713.225769043"/>
			<point x="773.4403686523" y="597.7958984375"/>
			<point x="665.4403686523" y="597.7958984375" type="qcurve" smooth="yes"/>
		</contour>
	</outline>
	<anchor name="bottom" x="282" y="0"/>
	<anchor name="top" x="486" y="1000"/>
</glyph>
<glyph name="s" format="2">
	<unicode hex="0073"/>
	<advance width="828"/>
	<outline>
		<contour>
			<point x="-62.6943969727" y="210" type="qcurve" smooth="yes"/>
			<point x="-61.6943969727" y="295"/>
			<point x="12.8151245117" y="402"/>
			<point x="71.7614746094" y="402" type="qcurve" smooth="yes"/>
			<point x="109.7614746094" y="402" type="line"/>
			<point x="106.7614746094" y="192.8110351562" type="line" smooth="yes"/>
			<point x="105.7614746094" y="142.1126098633"/>
			<point x="140.8107910156" y="89.0323486328"/>
			<point x="272.8631591797" y="89.0323486328" type="qcurve" smooth="yes"/>
			<point x="355.1762084961" y="89.0323486328"/>
			<point x="514.8610839844" y="170.6722412109"/>
			<point x="521.8610839844" y="252.0216064453" type="qcurve" smooth="yes"/>
			<point x="528.8610839844" y="332.52734375"/>
			<point x="423.1025390625" y="376.4133300781"/>
			<point x="304.1954345703" y="461.7157592773" type="qcurve" smooth="yes"/>
			<point x="198.0462036133" y="529.4927368164"/>
			<point x="59.3506469727" y="681.4907226562"/>
			<point x="67.1043701172" y="802.6811523438" type="qcurve" smooth="yes"/>
			<point x="76.8580932617" y="869.7849121094"/>
			<point x="357.8219604492" y="1030.5709228516"/>
			<point x="473.7783203125" y="1030.5709228516" type="qcurve" smooth="yes"/>
			<point x="545.3115234375" y="1030.5709228516"/>
			<point x="708.5628662109" y="906.9990234375"/>
			<point x="707.5628662109" y="815.9990234375" type="qcurve" smooth="yes"/>
			<point x="706.5628662109" y="747.7728271484"/>
			<point x="634.4357299805" y="660.9990234375"/>
			<point x="621.9649658203" y="660.9990234375" type="qcurve" smooth="yes"/>
			<point x="572.9649658203" y="660.9990234375" type="line"/>
			<point x="572.9649658203" y="801.0777587891" type="line" smooth="yes"/>
			<point x="572.9649658203" y="835.2197875977"/>
			<point x="501.1758422852" y="916.792175293"/>
			<point x="420.7947998047" y="916.792175293" type="qcurve" smooth="yes"/>
			<point x="321.5642700195" y="916.792175293"/>
			<point x="236.509765625" y="846.3463134766"/>
			<point x="234.509765625" y="790.5588989258" type="qcurve" smooth="yes"/>
			<point x="233.509765625" y="735.5639038086"/>
			<point x="331.619934082" y="660.2103881836"/>
			<point x="418.7017211914" y="603.3440551758" type="qcurve" smooth="yes"/>
			<point x="527.7700195312" y="530.2424316406"/>
			<point x="696.6318969727" y="405.5181274414"/>
			<point x="692.6318969727" y="288.4586791992" type="qcurve"/>
			<point x="689.0712890625" y="144.8442993164"/>
			<point x="400.4533691406" y="-32.1432495117"/>
			<point x="250.6525878906" y="-32.1432495117" type="qcurve" smooth="yes"/>
			<point x="117.6340332031" y="-32.1432495117"/>
			<point x="-64.6943969727" y="101"/>
		</contour>
	</outline>
	<anchor name="bottom" x="282" y="0"/>
	<anchor name="top" x="446" y="1000"/>
</glyph>
<glyph name="t" format="2">
	<unicode hex="0074"/>
	<advance width="642"/>
	<outline>
		<contour>
			<point x="83.9993286133" y="-15" type="line"/>
			<point x="47.9993286133" y="134" type="line"/>
			<point x="132.9993286133" y="512" type="line"/>
			<point x="187.9747924805" y="818.3454589844" type="line"/>
			<point x="29.9747924805" y="827.3454589844" type="line"/>
			<point x="30.3086547852" y="908.9990234375" type="line"/>
			<point x="254.1781616211" y="944.6587524414"/>
			<point x="356.5550537109" y="1188.7231445312"/>
			<point x="306.8399658203" y="1217.9990234375" type="qcurve"/>
			<point x="335.5811157227" y="1217.9990234375" type="line"/>
			<point x="386.5811157227" y="1141.9990234375" type="line"/>
			<point x="303.2301635742" y="524" type="line"/>
			<point x="210.0017089844" y="159.9995117188" type="line"/>
			<point x="375.5174560547" y="137.0888671875" type="line"/>
			<point x="369.1374511719" y="48.3293457031" type="line"/>
		</contour>
		<contour>
			<point x="582.2763671875" y="827.3454589844" type="line"/>
			<point x="621.3086547852" y="931.9990234375" type="line"/>
			<point x="585.9742431641" y="931.9990234375" type="line"/>
			<point x="571.9419555664" y="824.3454589844" type="line"/>
		</contour>
	</outline>
	<anchor name="bottom" x="149" y="0"/>
	<anchor name="center" x="262" y="622"/>
	<anchor name="top" x="322" y="1179"/>
	<anchor name="topright" x="600" y="920"/>
</glyph>
<glyph name="u" format="2">
	<unicode hex="0075"/>
	<advance width="1181"/>
	<outline>
		<contour>
			<point x="723.5260009766" y="-15" type="line"/>
			<point x="679.5260009766" y="121" type="line"/>
			<point x="687.096862793" y="317.1737670898" type="line"/>
			<point x="817.2877197266" y="882.2252197266" type="line"/>
			<point x="819.2877197266" y="995.2252197266" type="line"/>
			<point x="942.2612304688" y="1021.2252197266" type="line"/>
			<point x="1005.2612304688" y="918.2252197266" type="line"/>
			<point x="879.4995117188" y="415" type="line"/>
			<point x="829.1294555664" y="144.9995117188" type="line"/>
			<point x="990.4893188477" y="135.9985961914" type="line"/>
			<point x="986.859375" y="46.9990844727" type="line"/>
		</contour>
		<contour>
			<point x="68.741027832" y="309" type="qcurve" smooth="yes"/>
			<point x="167.2928466797" y="803.2257080078" type="line"/>
			<point x="27.3876953125" y="794.1363525391" type="line"/>
			<point x="27.5975952148" y="896.1358642578" type="line"/>
			<point x="132.5358276367" y="1012.2252197266" type="line"/>
			<point x="290.5358276367" y="1012.2252197266" type="line"/>
			<point x="357.5358276367" y="887.2252197266" type="line"/>
			<point x="244.8221435547" y="330.1291503906" type="line" smooth="yes"/>
			<point x="226.5205688477" y="243.1291503906"/>
			<point x="264.5648803711" y="165.5094604492"/>
			<point x="327.1149291992" y="165.5094604492" type="qcurve" smooth="yes"/>
			<point x="433.5344848633" y="165.5094604492"/>
			<point x="654.3792114258" y="305.6624145508"/>
			<point x="735.7459106445" y="310.1748046875" type="qcurve"/>
			<point x="749.6497802734" y="261.4254760742" type="line"/>
			<point x="702.0657958984" y="197.6760864258"/>
			<point x="353.1386108398" y="-17"/>
			<point x="228.6337280273" y="-17" type="qcurve" smooth="yes"/>
			<point x="182.2736206055" y="-17"/>
			<point x="38.9873046875" y="164"/>
		</contour>
	</outline>
	<anchor name="bottom" x="404" y="0"/>
	<anchor name="ogonek" x="871" y="20"/>
	<anchor name="top" x="572" y="1000"/>
	<anchor name="topright" x="915" y="1000"/>
	<anchor name="cy_descender" x="1018" y="134"/>
</glyph>
<glyph name="v" format="2">
	<unicode hex="0076"/>
	<advance width="954"/>
	<outline>
		<contour>
			<point x="233.6928100586" y="-9.1430664062" type="line"/>
			<point x="161.0081787109" y="510.6666259766" type="line"/>
			<point x="114.0116577148" y="802.2257080078" type="line"/>
			<point x="-18.3754882812" y="794.4998779297" type="line"/>
			<point x="-16.3255004883" y="888.4993896484" type="line"/>
			<point x="202.8170166016" y="1013.2252197266" type="line"/>
			<point x="278.4965820312" y="1013.2252197266" type="line"/>
			<point x="337.9426879883" y="478.3149414062" type="line"/>
			<point x="356.9002075195" y="263.6020507812" type="line"/>
			<point x="365.6758422852" y="149.3533325195" type="line"/>
			<point x="375.6758422852" y="149.3533325195" type="line"/>
			<point x="460.2449951172" y="258.823425293" type="line"/>
			<point x="643.5736083984" y="487.7286987305"/>
			<point x="703.4701538086" y="623.3485107422"/>
			<point x="703.4701538086" y="683.8142700195" type="qcurve" smooth="yes"/>
			<point x="703.4701538086" y="746.9185180664"/>
			<point x="579.3967285156" y="851.5379638672"/>
			<point x="579.3967285156" y="900.1874389648" type="qcurve" smooth="yes"/>
			<point x="579.3967285156" y="949.485168457"/>
			<point x="655.1597290039" y="1025.4620361328"/>
			<point x="714.3672485352" y="1025.4620361328" type="qcurve" smooth="yes"/>
			<point x="758.784362793" y="1025.4620361328"/>
			<point x="848.6592407227" y="958.1321411133"/>
			<point x="844.6592407227" y="833.7957763672" type="qcurve" smooth="yes"/>
			<point x="839.6592407227" y="695.083190918"/>
			<point x="574.258605957" y="269.7292480469"/>
			<point x="363.2802734375" y="2.8569335938" type="qcurve"/>
		</contour>
	</outline>
	<anchor name="bottom" x="513" y="0"/>
	<anchor name="top" x="513" y="1000"/>
</glyph>
<glyph name="w" format="2">
	<unicode hex="0077"/>
	<advance width="1325"/>
	<outline>
		<contour>
			<point x="180.5339355469" y="-8" type="line"/>
			<point x="125.5596313477" y="486.1834106445" type="line"/>
			<point x="84.0116577148" y="804.2257080078" type="line"/>
			<point x="-51.6427612305" y="793.7725219727" type="line"/>
			<point x="-56.0528564453" y="887.7720336914" type="line"/>
			<point x="38.2443237305" y="1013.2252197266" type="line"/>
			<point x="229.2443237305" y="1013.2252197266" type="line"/>
			<point x="266.4161376953" y="522.8087158203" type="line"/>
			<point x="291.3055419922" y="216.1508178711" type="line"/>
			<point x="293.2322387695" y="138.6452636719" type="line"/>
			<point x="303.2322387695" y="138.6452636719" type="line"/>
			<point x="352.7588500977" y="217.282409668" type="line"/>
			<point x="406.6083984375" y="287.6220703125"/>
			<point x="454.0431518555" y="346.9724121094"/>
			<point x="496.6384277344" y="402.5492553711" type="qcurve"/>
			<point x="449.6309814453" y="833.7331542969" type="line"/>
			<point x="416.8517456055" y="825.3982543945" type="line"/>
			<point x="413.0687866211" y="931.2791748047" type="line"/>
			<point x="397.727355957" y="1013.2252197266" type="line"/>
			<point x="587.9736328125" y="1013.2252197266" type="line"/>
			<point x="659.0932617188" y="493.1680297852" type="line"/>
			<point x="688.06640625" y="206.3467407227" type="line"/>
			<point x="696.9921875" y="131.1042480469" type="line"/>
			<point x="706.9921875" y="131.1042480469" type="line"/>
			<point x="764.7557983398" y="209.6065673828" type="line"/>
			<point x="928.518371582" y="422.9658813477"/>
			<point x="1042.5619506836" y="621.5772705078"/>
			<point x="1031.0892944336" y="693.4863891602" type="qcurve" smooth="yes"/>
			<point x="1021.4092407227" y="759.8322143555"/>
			<point x="860.32421875" y="859.083190918"/>
			<point x="860.8167724609" y="926.4039306641" type="qcurve" smooth="yes"/>
			<point x="860.3093261719" y="969.0682983398"/>
			<point x="928.4960327148" y="1041.2252197266"/>
			<point x="973.6082763672" y="1040.2252197266" type="qcurve" smooth="yes"/>
			<point x="1040.5332641602" y="973.5403442383"/>
			<point x="1161.1712036133" y="937.7177734375"/>
			<point x="1161.1712036133" y="819.2103271484" type="qcurve" smooth="yes"/>
			<point x="1161.1712036133" y="672.964050293"/>
			<point x="874.9508666992" y="314.6751708984"/>
			<point x="684.4304199219" y="4" type="qcurve"/>
			<point x="570.4400024414" y="-8" type="line"/>
			<point x="524.9451293945" y="275.1282348633" type="line"/>
			<point x="519.0935058594" y="347.3822021484" type="line"/>
			<point x="509.0935058594" y="347.3822021484" type="line"/>
			<point x="466.9328613281" y="269.6015625" type="line"/>
			<point x="415.178527832" y="195.7512207031"/>
			<point x="347.7516479492" y="100.8503417969"/>
			<point x="282.9973144531" y="4" type="qcurve"/>
		</contour>
	</outline>
	<anchor name="bottom" x="787" y="0"/>
	<anchor name="top" x="717" y="1000"/>
</glyph>
<glyph name="x" format="2">
	<unicode hex="0078"/>
	<advance width="980"/>
	<outline>
		<contour>
			<point x="127.3107299805" y="-10.7145996094" type="qcurve"/>
			<point x="-72.3258666992" y="43.4671630859" type="line"/>
			<point x="-56.3258666992" y="169.4671630859" type="line"/>
			<point x="133.3107299805" y="169.2854003906" type="line" smooth="yes"/>
			<point x="182.8225708008" y="168.3887939453"/>
			<point x="308.0723266602" y="215.7266235352"/>
			<point x="361.4730834961" y="235.1068115234" type="qcurve" smooth="yes"/>
			<point x="379.66796875" y="225.0240478516"/>
			<point x="420.0073242188" y="241.7242431641"/>
			<point x="435.6373291016" y="232.5347290039" type="qcurve"/>
			<point x="214.7153320312" y="805.5471191406" type="line"/>
			<point x="82.5198974609" y="799.7542724609" type="line"/>
			<point x="78.5397949219" y="887.09375" type="line"/>
			<point x="215.3601074219" y="1029.5466308594" type="line"/>
			<point x="340.3601074219" y="989.5466308594" type="line"/>
			<point x="405.3304443359" y="803.4606323242" type="line"/>
			<point x="428.3275146484" y="739.7864990234" type="line"/>
			<point x="438.3275146484" y="739.7864990234" type="line"/>
			<point x="493.8979492188" y="797.9506835938" type="line" smooth="yes"/>
			<point x="521.75390625" y="828.3924560547"/>
			<point x="580.3743896484" y="899.487487793"/>
			<point x="615.8703613281" y="927.4532470703" type="qcurve" smooth="yes"/>
			<point x="654.6698608398" y="949.8724365234"/>
			<point x="749.6317749023" y="1027.8323974609"/>
			<point x="797.6975708008" y="1027.8323974609" type="qcurve" smooth="yes"/>
			<point x="829.7954711914" y="1027.8323974609"/>
			<point x="871.4732666016" y="970.329284668"/>
			<point x="870.4732666016" y="915.329284668" type="qcurve" smooth="yes"/>
			<point x="868.4732666016" y="853.329284668"/>
			<point x="823.9763793945" y="755.8323974609"/>
			<point x="811.9763793945" y="735.8323974609" type="qcurve"/>
			<point x="677.9763793945" y="735.8323974609" type="line"/>
			<point x="677.9763793945" y="773.8386230469" type="line" smooth="yes"/>
			<point x="677.9763793945" y="790.8386230469"/>
			<point x="664.7301025391" y="807.8323974609"/>
			<point x="647.3335571289" y="807.8323974609" type="qcurve" smooth="yes"/>
			<point x="623.6487426758" y="807.8323974609"/>
			<point x="544.1069335938" y="773.8493652344"/>
			<point x="516.6467285156" y="760.041015625" type="qcurve" smooth="yes"/>
			<point x="494.8651123047" y="750.1312255859"/>
			<point x="459.647277832" y="729.9709472656"/>
			<point x="419.7788085938" y="693.4920043945" type="qcurve"/>
			<point x="630.9741821289" y="151.4277954102" type="line"/>
			<point x="769.3928833008" y="135.8812866211" type="line"/>
			<point x="770.8029785156" y="44.8817749023" type="line"/>
			<point x="615.7094116211" y="-9.5717163086" type="line"/>
			<point x="493.7094116211" y="29.4282836914" type="line"/>
			<point x="434.6155395508" y="176.5315551758" type="line"/>
			<point x="416.4047241211" y="228.4826049805" type="line"/>
			<point x="406.4047241211" y="228.4826049805" type="line"/>
			<point x="349.3449707031" y="180.6384887695" type="line"/>
			<point x="322.8279418945" y="163.8038330078"/>
			<point x="267.2383422852" y="100.0239257812"/>
			<point x="238.1094970703" y="81.6081542969" type="qcurve" smooth="yes"/>
			<point x="186.430480957" y="62.4851074219"/>
			<point x="118.5895385742" y="-9.2049560547"/>
		</contour>
	</outline>
	<anchor name="bottom" x="522" y="0"/>
	<anchor name="top" x="522" y="1000"/>
	<anchor name="cy_descender" x="832" y="134"/>
	<anchor name="center" x="432" y="502"/>
</glyph>
<glyph name="y" format="2">
	<unicode hex="0079"/>
	<advance width="976"/>
	<outline>
		<contour>
			<point x="-406.9662475586" y="-418.4267578125" type="line"/>
			<point x="-374.9662475586" y="-305.4267578125" type="line"/>
			<point x="-198.7483520508" y="-305.4267578125" type="line" smooth="yes"/>
			<point x="12.4259643555" y="-305.4267578125"/>
			<point x="232.8949584961" y="-152.1209106445"/>
			<point x="326.9243774414" y="-16" type="qcurve" smooth="yes"/>
			<point x="347.4082641602" y="14" type="line"/>
			<point x="218.6278076172" y="14" type="line"/>
			<point x="226.918762207" y="79"/>
			<point x="152.2252807617" y="605.2257080078"/>
			<point x="110.9216308594" y="803.2257080078" type="qcurve"/>
			<point x="-18.3754882812" y="793.4998779297" type="line"/>
			<point x="-15.3255004883" y="888.4993896484" type="line"/>
			<point x="207.8560180664" y="1012.2252197266" type="line"/>
			<point x="267.7691040039" y="1012.2252197266" type="line"/>
			<point x="299.3469238281" y="898.2252197266" type="line"/>
			<point x="353.9261474609" y="202.5729980469" type="line"/>
			<point x="356.9274902344" y="90.0717773438" type="line"/>
			<point x="366.9274902344" y="90.0717773438" type="line"/>
			<point x="448.506652832" y="201.0555419922" type="line" smooth="yes"/>
			<point x="547.4371337891" y="340.2058105469"/>
			<point x="715.0463867188" y="620.6253662109"/>
			<point x="694.2521972656" y="723.1912841797" type="qcurve" smooth="yes"/>
			<point x="681.7039794922" y="815.0412597656"/>
			<point x="629.1232910156" y="887.5170288086"/>
			<point x="631.1232910156" y="931.2936401367" type="qcurve" smooth="yes"/>
			<point x="632.1232910156" y="978.4654541016"/>
			<point x="684.7727661133" y="1040.8090820312"/>
			<point x="729.3626708984" y="1040.8090820312" type="qcurve" smooth="yes"/>
			<point x="781.7807617188" y="1040.8090820312"/>
			<point x="862.1065063477" y="960.1298217773"/>
			<point x="862.1065063477" y="887.3829956055" type="qcurve" smooth="yes"/>
			<point x="862.1065063477" y="739.2260742188"/>
			<point x="467.8715820312" y="142.8135375977"/>
			<point x="376.9826049805" y="-2" type="qcurve" smooth="yes"/>
			<point x="345.4906005859" y="-45" type="line" smooth="yes"/>
			<point x="220.8584594727" y="-215.4528808594"/>
			<point x="8.8714599609" y="-480.4267578125"/>
			<point x="-181.7483520508" y="-480.4267578125" type="qcurve"/>
		</contour>
	</outline>
	<anchor name="bottom" x="782" y="0"/>
	<anchor name="top" x="504" y="1000"/>
</glyph>
<glyph name="z" format="2">
	<unicode hex="007A"/>
	<advance width="905"/>
	<outline>
		<contour>
			<point x="-11.4077148438" y="8.8566894531" type="line"/>
			<point x="-39.9966430664" y="106" type="line"/>
			<point x="50.8350219727" y="215.0594482422"/>
			<point x="239.9565429688" y="418.1068115234"/>
			<point x="336.0713500977" y="515.483581543" type="qcurve" smooth="yes"/>
			<point x="425.8580322266" y="608.6621704102"/>
			<point x="619.7203979492" y="761.4635009766"/>
			<point x="694.4000854492" y="809.9990234375" type="qcurve"/>
			<point x="243.4390869141" y="801.9990234375" type="line"/>
			<point x="175.7052001953" y="674.9965820312" type="line"/>
			<point x="73.9508666992" y="674.9965820312" type="line"/>
			<point x="160.684753418" y="961.9990234375" type="line"/>
			<point x="221.684753418" y="1010.9990234375" type="line"/>
			<point x="783.8334350586" y="1005.9990234375" type="line"/>
			<point x="813.0397338867" y="854.9990234375" type="line"/>
			<point x="755.5209350586" y="773.4635009766"/>
			<point x="610.3882446289" y="643.3963012695"/>
			<point x="523.3956298828" y="534.1662597656" type="qcurve" smooth="yes"/>
			<point x="438.7952270508" y="430.8806152344"/>
			<point x="275.8623046875" y="280.1904296875"/>
			<point x="192.0971069336" y="232" type="qcurve"/>
			<point x="637.3739013672" y="184.3485107422" type="line"/>
			<point x="722.3079833984" y="353.0174560547" type="line"/>
			<point x="811.0623168945" y="322.9946899414" type="line"/>
			<point x="698.1282348633" y="21.3257446289" type="line"/>
			<point x="630.1282348633" y="-22.6742553711" type="line"/>
			<point x="104.5812988281" y="47.9842529297" type="line"/>
		</contour>
	</outline>
	<anchor name="bottom" x="443" y="0"/>
	<anchor name="top" x="463" y="1000"/>
	<anchor name="_liga" x="0" y="0"/>
</glyph>
